<?xml version="1.0" encoding="utf-8"?>
<!-- Generator: Adobe Illustrator 16.0.0, SVG Export Plug-In . SVG Version: 6.00 Build 0)  -->
<!DOCTYPE svg PUBLIC "-//W3C//DTD SVG 1.1//EN" "http://www.w3.org/Graphics/SVG/1.1/DTD/svg11.dtd">
<svg version="1.1" id="图层_1" xmlns="http://www.w3.org/2000/svg" xmlns:xlink="http://www.w3.org/1999/xlink" x="0px" y="0px"
	 width="612px" height="792px" viewBox="0 0 612 792" enable-background="new 0 0 612 792" xml:space="preserve">
<g>
	<g>
		<g opacity="0.2">
			<path fill="#FFFFFF" d="M144.254,674.615c0.694-1.024-0.238-3.472-1.883-5.406C143.541,671.383,136.787,670.805,144.254,674.615z
				"/>
			<path fill="#FFFFFF" d="M73.015,555.619c0,0-0.231,0.45-0.456,0.911c-0.205,0.45-0.417,0.905-0.417,0.905
				C72.893,557.858,73.527,558.051,73.015,555.619z"/>
			<path fill="#FFFFFF" d="M71.669,558.51l0.474-1.074c-0.292-0.192-0.584-0.409-0.795-0.525l0.109-3.74
				c0.018,2.268-0.512,2.186-1.213,1.392l0.538-1.812l-1.501,0.551c-0.889-1.257-1.779-2.502-2.124-1.346
				c1.578,0.563,2.215,6.457,3.218,2.927l0.702,2.042C71.047,557.08,71.191,557.518,71.669,558.51z"/>
			<path fill="#FFFFFF" d="M58.963,549.701c0.323-0.416,0.546-0.791,0.797-1.169C59.281,548.446,58.925,548.597,58.963,549.701z"/>
			<path fill="#FFFFFF" d="M69.744,552.665l0.601-1.163C69.469,550.91,68.596,549.901,69.744,552.665z"/>
			<path fill="#FFFFFF" d="M71.343,549.554l-0.998,1.948C71.087,552.013,71.833,552.207,71.343,549.554z"/>
			<path fill="#FFFFFF" d="M73.418,584.058c0.55,0.011,0.86-0.359,1.067-0.905C73.979,582.958,73.554,583.161,73.418,584.058z"/>
			<path fill="#FFFFFF" d="M80.216,584.428l0.266-0.499C80.351,583.992,80.268,584.193,80.216,584.428z"/>
			<path fill="#FFFFFF" d="M79.462,575.91l-0.949,1.576c-0.546-0.377-1.429,0.253-2.278-0.8l0.212-2.285
				c0.223,0.212,0.429,0.403,0.72,0.687c-0.08-1.033-0.316-1.423-0.629-1.579l0.123-1.265c-0.402,0.135-0.63,0.562-0.75,1.162
				c-0.529-0.009-1.169,0.041-1.784-0.741c0,0,0.029-0.299,0.102-0.764c0.064-0.458,0.155-1.074,0.245-1.688
				c0.189-1.223,0.377-2.442,0.377-2.442c-0.644,0.204-0.944,1.064-1.046,2.302c-0.111,1.245-0.028,2.861,0.234,4.51
				c0.456,3.316,1.09,6.95,0.447,8.57c0.782,0.303,1.737,1.509,2.232,2.721c-0.032,0.163-0.072,0.334-0.119,0.475
				c0.115,0.047,0.238,0.141,0.365,0.217c0.204,0.848,0.112,1.596-0.524,1.944c1.188,1.853,1.867,2.468,2.269,2.513
				c-0.05,0.043-0.075,0.106-0.14,0.147c4.157,6.237,1.313-2.607,5.028,0.829c-1.225-0.832-1.92-3.502-1.711-4.576l-0.641,1.34
				c-0.44-0.637-0.807-1.452-0.97-2.26c-0.158-0.808-0.179-1.586-0.058-2.066l-1.472,2.823l-1.566-2.208
				c2.88,0.125-2.889-10.363,0.987-6.963l-0.33,0.554c0.443,1.13,1.456,1.953,2.39,2.468l-0.591,1.042
				c0.936,2.396,4.683,3.246,3.72,2.688c-0.64-1.169-1.537-2.197-2.028-3.212c0.641,0.227,0.977,0.215,0.579-0.008
				c-0.275-0.511-0.59-0.979-0.909-1.437c0.007-0.199,0.036-0.39,0.109-0.589l-0.239,0.403
				C79.888,578.568,78.966,577.269,79.462,575.91z"/>
			<path fill="#FFFFFF" d="M75.378,587.879c1.525,5.712-3.565-1.361-0.641,4.468C76.664,592.494,76.439,590.538,75.378,587.879z"/>
			<path fill="#FFFFFF" d="M89.414,605.281c-0.079,1.479,0.395,3.309,1.609,3.948c-2.626-4.082,1.104-2.734,0.511-5.42
				c-0.788-0.923-1.4-0.714-1.766-0.029c0.325-2.032,4.771-0.911,0.003-4.346C89.756,602.209,87.131,601.449,89.414,605.281z"/>
			<path fill="#FFFFFF" d="M125.149,652.782c0.006,0.026,0.01,0.06,0.029,0.083c0-0.023,0.007-0.023,0.018-0.029
				c0.509,0.525,1.067,1.185,2.03,1.88c0.614,0.177,0.979,0.21,1.187,0.153c0.276,0.255,0.569,0.488,0.873,0.636
				c0.049-2.362-0.648-3.704-1.661-5.158c0.167-0.022,0.344-0.022,0.572,0l-0.709-0.193c-1.239-1.636-3.022-3.335-4.817-6.525
				c0.677,2.222,1.002,3.944,1.382,5.569l-0.391-0.11C123.93,650.184,123.164,650.628,125.149,652.782z"/>
			<path fill="#FFFFFF" d="M123.672,649.087c-0.126-0.488-0.513-1.153-1.465-2.175c0.384,0.7,0.816,1.42,1.136,2.091
				L123.672,649.087z"/>
			<path fill="#FFFFFF" d="M93.795,618.982c0.098,0.386,0.22,0.768,0.269,1.143C94.128,619.61,93.992,619.268,93.795,618.982z"/>
			<path fill="#FFFFFF" d="M91.784,618.25c0.843-0.034,1.613,0.177,2.012,0.732c-0.619-2.099-1.708-4.349-3.213-4.751
				c-0.329-0.76-0.522-1.414-0.671-2.02c0.277,0.126,0.511,0.301,0.66,0.553c-0.189-0.982-0.532-1.968-0.985-2.752
				c-0.096-1.337-0.138-2.411-1.241-3.763l-1.323-0.459c-0.289-1.935,0.038-3.052-1.217-4.764l-2.602-1.048
				c0.653,0.172,1.329,1.009,1.892,2.102c0.617,1.069,1.184,2.371,1.472,3.556l-1.173-0.408c0.407,0.089,0.85,0.422,1.284,0.899
				c0.254,1.361,0.127,2.485-0.73,2.635l1.816-0.438c-0.563,1.525,0.543,3.888,1.479,6c-0.15,0.218-0.328,0.388-0.611,0.444
				l0.727-0.191c0.985,2.229,1.708,4.141-0.05,4.421c1.569,0.496,1.943-0.03,1.744-0.999c1.509,3.399,4.476,7.19,1.748,7.731
				C97.034,626.967,93.245,621.65,91.784,618.25z"/>
			<path fill="#FFFFFF" d="M133.407,661.144c1.028-1.887,2.638,1.781,4.578,2.744c-0.022-5.771-3.702-6.149-7.922-12.508
				C131.61,655.464,131.848,657.976,133.407,661.144z"/>
			<path fill="#FFFFFF" d="M144.527,662.634l2.205,2.276l-1.582-3.716c0.754,1.993-0.444,1.492-1.893,0.7
				c-1.533-0.97-3.325-2.336-3.167-0.815c0.724-0.037,1.638,0.878,2.458,1.711c0.864,0.784,1.62,1.49,1.912,1.173
				c0.169,0.194,0.33,0.393,0.496,0.551l-0.45-0.604C144.611,663.702,144.629,663.309,144.527,662.634z"/>
			<path fill="#FFFFFF" d="M145.15,661.189c-0.088-0.21-0.183-0.45-0.311-0.726L145.15,661.189z"/>
			<path fill="#FFFFFF" d="M115.939,647.609c1.415,5.325-0.007-0.504,3.808,3.27C119.675,648.834,117.221,648.875,115.939,647.609z"
				/>
			<path fill="#FFFFFF" d="M153.785,670.52c0.524,1.011,1.115,1.759,1.741,2.335L153.785,670.52z"/>
			<path fill="#FFFFFF" d="M58.786,545.413c-0.148-0.688-0.22-1.392-0.288-1.918c-0.069-0.529-0.11-0.875-0.11-0.875
				s0.008,0.338,0.025,0.853c0.027,0.503,0.019,1.193,0.095,1.856c0.126,1.345,0.247,2.688,0.247,2.688l0.554,0.166
				C59.305,548.181,59.047,546.805,58.786,545.413z"/>
			<path fill="#FFFFFF" d="M75.621,587.199c0.503-0.005,0.785-0.353,0.978-0.845C76.133,586.177,75.738,586.354,75.621,587.199z"/>
			<path fill="#FFFFFF" d="M81.89,587.412l0.225-0.458C81.992,587.026,81.939,587.202,81.89,587.412z"/>
			<path fill="#FFFFFF" d="M77.54,590.619c1.555,5.172-3.224-1.214-0.511,4.069C78.761,594.842,78.658,592.998,77.54,590.619z"/>
			<path fill="#FFFFFF" d="M87.039,600.625l0.236-0.912c-0.869-3.233,4.835-1.181,0.18-4.995
				C87.294,597.429,84.711,596.396,87.039,600.625z"/>
			<path fill="#FFFFFF" d="M112.522,629.619c-0.447-0.509-1.266-1.268-2.007-1.746C110.941,628.454,111.536,629.06,112.522,629.619z
				"/>
			<path fill="#FFFFFF" d="M90.571,612.765c0.064,0.355,0.16,0.703,0.185,1.063C90.832,613.354,90.726,613.035,90.571,612.765z"/>
			<path fill="#FFFFFF" d="M135.402,654.59l1.875,2.229l-1.481-4.214c2.136,5.399-4.656-2.288-4.448,0.43
				C133.024,652.991,135.729,658.25,135.402,654.59z"/>
			<path fill="#FFFFFF" d="M113.072,642.916c0.041-1.834-2.002-1.987-3.121-3.092c-0.656-1.344-1.176-2.557-1.255-3.389
				c1.286,0.889,2.897,2.292,4.069,2.859c0,0,0.146,1.074,0.283,2.152c0.077,0.534,0.152,1.076,0.206,1.483s0.115,0.661,0.115,0.661
				c2.183,0.879,6.747,5.02,7.417,3.185c0.654,0.037,0.438-0.503,0.031-1.226c0.004-0.007,0-0.016-0.003-0.023
				c0.608,0.545,1.012,0.971,1.394,1.385c-0.732-1.367-1.542-2.714-2.389-4.024c0.155-0.223,0.493-0.334,1.162-0.248l-1.629-0.461
				c-0.354-0.55-0.701-1.098-1.064-1.602c1.23-1.739,4.885,0.388,4.929,3.385c4.267,1.985-3.091-5.264,1.176-2.291
				c-2.757-4.055-3.05-3.37-3.736-2.724c-0.64,0.603-1.884,1.376-5.855-3.245c-0.565-1.808,0.215-1.727,1.213-1.115
				c0.36,0.617,0.592,1.329,0.561,2.101c1.455,0.808,1.388,0.223,1.006-0.614c0.231,0.171,0.484,0.333,0.771,0.496
				c-0.252-0.283-0.627-0.653-1.038-1.014c-0.66-1.233-1.524-2.529,0.444-0.931c-2.541-4.412-2.612-3.071-3.485-2.529
				c-0.352-0.152-0.812-0.186-1.46-0.092c-0.234-0.11-0.505-0.287-0.809-0.503c-0.148-1.647-2.35-3.066-2.504-4.05
				c0.275,0.025,0.623,0.154,1.017,0.422c-0.269-0.38-0.464-0.748-0.648-1.082c0.16-0.098,0.351-0.187,0.615-0.27
				c-1.854-2.031-3.076-2.785-4.389-3.338c-0.496-0.744-1.114-1.422-1.322-1.94l2.606,0.262c-1.199-1.804-1.661-1.933-1.991-1.663
				c-0.964-1.203-1.823-1.895-2.622-2.355c-0.345-0.773-0.906-1.59-1.597-2.237l1.745,0.217c-1.937-2.945-1.817-1.078-2.563-0.814
				c-0.184-0.116-0.361-0.232-0.558-0.291c0.128,0.119,0.213,0.198,0.329,0.305c-0.314-0.023-0.759-0.296-1.457-1.105
				c1.069-0.036-0.4-4.02-2.454-4.876c6.068,6.139-2.929,3.745-2.154,5.533c-0.319-0.288-0.576-1.004-0.989-1.704
				c0.123-1.343,1.991-1.26,1.521-3.356c-1.494-1.742-2.393,0.193-2.262,2.379c-0.01-0.014-0.018-0.019-0.03-0.037
				c0.262,2.968,1.343,3.803,2.758,4.418c1.423,0.606,3.049,1.083,4.346,3.476c-0.879,0.146-1.627,0.296-1.7,0.688
				c-0.038,0.03-0.059,0.083-0.091,0.118c-0.493-0.559-0.948-1.8-1.975-2.641c0.333,2.285,1.118,3.34,2.094,3.989
				c0.348,1.273,0.947,2.875-0.449,2.982c3.887,3.157,2.139-0.255,2.001-2.211c1.434,0.573,3.004,1.162,4.325,3.525
				c0.209,0.522,0.41,1.025,0.651,1.458c-0.739-0.376-1.27-0.573-1.661-0.65c-0.269-0.53-0.529-1.104-0.868-1.56
				c-2.082,1.741-0.902,3.548,0.666,5.407c0.055,0.611-0.127,1.083-0.9,1.167c2.066,1.459,2.715,1.481,2.814,0.899
				c0.432,0.53,0.803,1.063,1.046,1.625c0.011,0.356,0.116,0.712,0.271,1.068c0.037,0.449-0.006,0.903-0.206,1.382l-0.554-0.396
				l0.452,3.214c1.581-0.105,1.637-1.312,1.141-2.875c1.013,1.273,2.489,2.557,3.513,3.903c0.389,1.94,0.381,1.513,0.754,1.225
				c0.42,0.888,0.567,1.829,0.185,2.843l-0.599-0.416c0,0,0.142,0.88,0.284,1.765c0.18,0.857,0.361,1.71,0.361,1.71
				c2.644-0.311,1.227-2.992-0.129-5.978C111.187,641.447,111.803,641.472,113.072,642.916z M104.587,625.324
				c-0.021-0.022-0.037-0.029-0.063-0.044h0.052C104.583,625.295,104.587,625.313,104.587,625.324z"/>
			<path fill="#FFFFFF" d="M144.952,664.506l2.033,2.724c-0.22-1.354,2.056-1.285,2.581-1.499
				C148.009,666.004,146.367,665.805,144.952,664.506z"/>
			<path fill="#FFFFFF" d="M159.38,669.526c-0.672-0.239-1.361-0.485-1.994-0.721c-2.553-0.84-4.423-1.074-1.81,2.743
				c0.516,0.583,0.949,1.226,1.373,1.856c0.478-0.382,4.036-2.249,4.346-2.455c0.471-0.313,0.815-0.529,1.122-0.716
				c-0.314-0.032-0.658-0.077-1.049-0.164C160.763,669.924,160.071,669.746,159.38,669.526z"/>
			<path fill="#FFFFFF" d="M71.641,571.047c0.315,2.455-5.779-0.544-0.181,5.733C72.48,576.072,72.48,573.453,71.641,571.047z"/>
			<path fill="#FFFFFF" d="M36.682,429.188c0.453-0.286,0.789-0.545,1.162-0.801C37.432,428.141,37.047,428.141,36.682,429.188z"/>
			<path fill="#FFFFFF" d="M44.756,398.6l0.525-3.584C44.832,396.91,44.699,398,44.756,398.6z"/>
			<path fill="#FFFFFF" d="M40.978,401.865c-0.785,1.326-2.512,1.062-3.586,4.928C39.334,403.051,39.936,406.419,40.978,401.865z"/>
			<polygon fill="#FFFFFF" points="38.989,414.236 37.047,419.826 37.517,420.237 			"/>
			<path fill="#FFFFFF" d="M37.851,466.495c0.511,0.208,0.938-0.024,1.329-0.451C38.767,465.677,38.3,465.706,37.851,466.495z"/>
			<path fill="#FFFFFF" d="M38.317,470.771c-0.622,5.881-2.84-2.564-2.196,3.93C37.855,475.548,38.346,473.65,38.317,470.771z"/>
			<path fill="#FFFFFF" d="M44.346,506.492c-0.053,0.387-0.07,0.797-0.158,1.165C44.427,507.202,44.423,506.828,44.346,506.492z"/>
			<path fill="#FFFFFF" d="M42.728,505.081c0.797,0.273,1.442,0.752,1.616,1.414c0.174-2.177-0.039-4.674-1.292-5.6
				c-0.043-0.829,0.01-1.507,0.093-2.133c0.211,0.214,0.367,0.465,0.414,0.751c0.177-0.982,0.206-2.011,0.069-2.923
				c0.386-1.279,0.73-2.296,0.188-3.961l-1.067-0.905c0.419-1.899,1.128-2.822,0.567-4.884l-2.048-1.932
				c0.546,0.408,0.873,1.424,1.013,2.661c0.193,1.21,0.257,2.632,0.098,3.846l-0.944-0.808c0.344,0.24,0.637,0.709,0.873,1.314
				c-0.247,1.35-0.767,2.361-1.623,2.195l1.847,0.242c-1.066,1.213-0.879,3.815-0.766,6.134c-0.215,0.15-0.454,0.245-0.728,0.193
				l0.748,0.089c0.121,2.439,0.109,4.482-1.627,4.101c1.289,1.039,1.816,0.692,1.979-0.286c0.189,3.719,1.597,8.33-1.136,7.844
				C44.499,515.133,42.875,508.78,42.728,505.081z"/>
			<path fill="#FFFFFF" d="M82.599,579.243l-0.788-2.796C81.943,577.577,82.223,578.498,82.599,579.243z"/>
			<path fill="#FFFFFF" d="M40.134,410.993c-0.637,1.235-2.235,1.042-3.018,4.634C38.695,412.13,39.433,415.201,40.134,410.993z"/>
			<path fill="#FFFFFF" d="M38.051,425.125c0.111-0.701,0.295-1.385,0.421-1.896c0.125-0.519,0.208-0.855,0.208-0.855
				s-0.105,0.324-0.276,0.801c-0.155,0.48-0.409,1.107-0.575,1.765c-0.365,1.304-0.734,2.601-0.734,2.601l0.456,0.361
				C37.547,427.903,37.797,426.516,38.051,425.125z"/>
			<path fill="#FFFFFF" d="M38.788,470.228c0.465,0.174,0.852-0.043,1.208-0.433C39.625,469.466,39.197,469.489,38.788,470.228z"/>
			<path fill="#FFFFFF" d="M39.348,474.118c-0.401,5.385-2.576-2.309-1.934,3.616C38.969,478.498,39.538,476.739,39.348,474.118z"/>
			<path fill="#FFFFFF" d="M43.563,499.514c-0.07,0.359-0.106,0.729-0.213,1.067C43.601,500.161,43.616,499.827,43.563,499.514z"/>
			<path fill="#FFFFFF" d="M75.53,566.888c0.167-0.148,0.325-0.504,0.478-1.175l1.243,2.924l-0.178-4.833
				c0.228,3.129-0.8,2.157-1.983,0.749c-1.081-1.467-2.264-3.389-2.663-1.925c0.688,0.241,1.211,1.422,1.678,2.504
				c0.526,1.043,0.974,1.984,1.361,1.792c0.091,0.241,0.159,0.485,0.261,0.696L75.53,566.888z"/>
			<path fill="#FFFFFF" d="M79.591,570.438c-1.548-0.314-2.997-1.106-3.861-2.825l0.919,3.278
				C76.932,569.541,79.027,570.452,79.591,570.438z"/>
			<path fill="#FFFFFF" d="M89.051,578.787c-0.517-0.351-1.101-0.774-1.661-1.236c-0.544-0.474-1.097-0.949-1.606-1.396
				c-2.07-1.731-3.739-2.624-2.665,1.887c0.269,0.734,0.438,1.498,0.614,2.237c0.581-0.173,4.569-0.628,4.93-0.697
				c0.55-0.121,0.956-0.204,1.308-0.269C89.691,579.18,89.388,579.003,89.051,578.787z"/>
			<path fill="#FFFFFF" d="M50.665,372.882c-0.799,0.449-1.201,0.674-1.578,0.257c-0.192,0.525-0.397,1.05-0.586,1.576
				C48.958,375.263,49.551,375.159,50.665,372.882z"/>
			<path fill="#FFFFFF" d="M49.087,373.139c0.005-0.018,0.015-0.045,0.023-0.064c-0.011,0.012-0.025,0.04-0.037,0.055
				C49.081,373.139,49.084,373.139,49.087,373.139z"/>
			<path fill="#FFFFFF" d="M468.224,282.315c88.162,86.096,90.487,228.039,5.194,317.039
				c-52.269,54.539-125.305,76.502-194.316,65.556c-0.583,16.657-2.6,33.294-1.476,49.936
				c82.443,11.121,168.849-16.004,231.123-80.98C612.928,525.17,610.09,351.803,502.4,246.645
				c-107.672-105.166-279.416-102.299-383.598,6.404c-16.891,17.622-30.963,36.953-42.234,57.408
				c0.128,0.125,0.254,0.258,0.384,0.384c-1.157,2.704-2.395,5.429-3.885,8.156c-0.248,0.563-0.254,1.229-0.16,1.874
				c-1.82,3.527-3.62,7.067-5.404,10.615c-0.853,1.222-1.703,2.497-2.551,3.859c0.06,0.371-0.005,0.859-0.077,1.412
				c-0.716,1.456-1.412,2.922-2.113,4.389c-0.333,0.259-0.667,0.514-0.988,0.792c-1.074,2.737-2.137,5.46-3.202,8.171
				c-0.895,1.977-1.81,3.946-2.674,5.925c-0.681,1.565-1.327,3.137-1.986,4.707c0.011,0,0.011-0.004,0.017-0.01
				c-0.014,0.024-0.025,0.051-0.044,0.081c-1.688,4.051-3.277,8.145-4.784,12.269c1.144-1.781,2.591-4.195,3.735-5.192
				c-0.311,0.909-0.633,1.827-0.963,2.761c-0.091,0.281-0.174,0.566-0.264,0.859c-0.271,0.329-0.438,0.66-0.341,1.1
				c-0.129,0.418-0.259,0.847-0.391,1.267c-0.778,1.577-1.537,3.084-2.265,3.746c0.463,0.29,0.853,0.716,1.198,1.224
				c0.058,0.948,0.111,1.889,0.134,2.836c-1.245,1.981-2.359,5.724-3.51,6.887c0.08,0.042,0.16,0.115,0.244,0.179
				c-0.192,0.356-0.399,0.789-0.634,1.382l1.768-0.124c0.164,0.26,0.315,0.525,0.463,0.805c-0.338,0.917-0.741,1.966-1.367,2.367
				c0.582-0.117,1.207-0.777,1.794-1.431c0.239,0.578,0.47,1.155,0.694,1.7c-0.141,1.296-0.285,2.593-0.463,3.886
				c-0.754,0.161-1.543,0.201-2.559,0.718c-0.429-0.423-0.906-0.398-1.498,0.963c-0.065-0.095-0.114-0.206-0.129-0.405l-0.094,0.62
				c0.071-0.058,0.137-0.104,0.199-0.154c-0.124,0.284-0.246,0.614-0.377,1.021l2.323-0.266c-0.333,0.924-0.632,2.512-1.379,3.045
				c0.33-0.082,0.651-0.371,0.978-0.715c-0.49,1.32-1.031,2.611-1.78,3.861c-0.302-0.289-0.537-0.57-0.754-0.828l0.084-0.577
				c-0.043,0.205-0.08,0.362-0.12,0.535c-0.713-0.87-1.122-1.336-2.667,0.362c0,0,0.184,1.375,0.371,2.752
				c0.079,0.686,0.223,1.379,0.318,1.889c0.108,0.523,0.167,0.865,0.167,0.865c0.953-1.047,1.855-2.105,2.826-3.092
				c0.521-0.375,1.107-0.854,1.602-0.986c-1.082,2.763-1.477,5.304-2.773,7.756c-0.273-0.239-0.482-0.467-0.678-0.684l0.667-3.497
				l-1.455,2.786c-0.213-0.106-0.463-0.08-0.768,0.117l-0.041-0.328l-0.234,0.539c-0.199,0.168-0.419,0.391-0.678,0.711l0.111,0.568
				l-1.93,4.362l2.783,1.667c-0.105,0.537-0.208,1.009-0.318,1.458l-0.08,0.171l-0.155-1.306c0,0-0.631,1.421-1.25,2.843
				c-0.588,1.437-1.093,2.885-1.098,2.885l0.54,0.299c-0.373,0.413-0.789,0.771-1.269,1.111c0.57,0.343,1.179,1.177,1.815,0.592
				l-0.358,2.84l1.187-0.535c-0.318,0.459-0.592,0.992-0.774,1.658c-0.099,0.375-0.182,0.734-0.269,1.104
				c-0.24,0.312-0.499,0.592-0.792,0.855c-0.748-1.176-1.582-2.281-0.85-4.211c-2.848,3.467-3.966,4.525-6.69,8.875
				c1.741,0.486,1.907,2.31,2.275,4.23c-0.354,0.566-0.713,1.192-1.129,1.951c2.563,0.625,1.433,4.324,3.197,6.566
				c1.023-1.698,1.653-5.03,2.681-6.693c0.046,3.135,0.451,5.877,1.18,8.519c-0.493,4.529-0.323,8.123,0.264,11.35
				c-0.127,0.214-0.261,0.401-0.401,0.561c0.614,0.561,1.073,2.032,1.104,3.346c-0.092,0.147-0.186,0.289-0.283,0.399
				c0.09,0.08,0.176,0.215,0.261,0.339c-0.105,0.853-0.464,1.524-1.18,1.616c0.447,2.159,0.853,2.986,1.212,3.162
				c-0.063,0.03-0.108,0.079-0.178,0.094c1.18,5.277,1.784,1.944,2.859,1.378c0.528,1.537,1.048,3.144,1.553,4.885
				c0.025,1.01,0.053,2.016,0.083,3.026c-0.144,0.537-0.159,1.332,0.012,2.617l0.067-0.094c0.07,1.955,0.152,3.918,0.254,5.87
				c-0.406,1.216-0.462,2.673,0.225,3.581c0.08,1.146,0.174,2.308,0.278,3.443c-0.335,1.578-0.138,2.585,0.344,3.37
				c0.16,1.385,0.352,2.761,0.558,4.135c-0.087,1.099,0.087,1.903,0.413,2.552c0.08,0.434,0.163,0.86,0.246,1.287
				c-0.112,1.132-0.314,2.201-1.415,1.871c1.364,2.387,1.863,2.312,2.124,1.476c0.126,0.543,0.24,1.08,0.373,1.62
				c-0.827,1.074-0.444,2.645,0.141,4.332c-0.163,0.586-0.509,0.958-1.259,0.766c1.403,2.11,2.001,2.374,2.298,1.859
				c0.22,0.661,0.375,1.289,0.398,1.903c-0.123,0.329-0.152,0.7-0.13,1.081c-0.127,0.431-0.329,0.848-0.688,1.221l-0.373-0.577
				l-0.728,3.165c1.505,0.48,1.991-0.624,2.088-2.26c0.485,1.56,1.4,3.288,1.872,4.911c-0.33,1.959-0.184,1.551,0.267,1.422
				c0.076,0.986-0.12,1.91-0.846,2.718l-0.405-0.608c0,0-0.187,0.87-0.374,1.752c-0.137,0.858-0.278,1.724-0.278,1.724
				c2.583,0.666,2.214-2.344,2.022-5.62c0.332-0.029,0.788,0.151,1.313,1.274c0.126,0.46,0.24,0.923,0.366,1.387
				c-0.003,0.029-0.011,0.101-0.011,0.101c0.02,0.019,0.037,0.035,0.058,0.061c0.465,1.751,0.909,3.514,1.307,5.287
				c-0.155-0.212-0.299-0.427-0.409-0.662c-0.588,5.484,0.178-0.476,2.386,4.433c0.535-1.564-0.862-2.423-1.814-3.563
				c0.21-0.472,0.421-0.986,0.63-1.542l0.003,0.252l0.589,0.204l-0.133-1.06c1.217,1.678,2.427,3.098,3.148,2.263
				c0.25,0.116,0.382,0.056,0.458-0.087c-0.027,0.507-0.053,1.098-0.08,1.688c-0.04,1.555,0.003,3.093,0.007,3.085l0.616,0.088
				c-0.204,0.524-0.46,1.009-0.787,1.501c0.469,0.088,1.046,0.386,1.479,0.263c0.067,0.207,0.133,0.411,0.227,0.656
				c0,0.029,0,0.058,0.004,0.088c0.008-0.014,0.011-0.008,0.026-0.014c0.289,0.671,0.574,1.491,1.218,2.493
				c0.312,0.235,0.546,0.382,0.738,0.474c-0.104,0.669-0.31,1.251-0.605,1.822c-1.116-0.827-2.294-1.558-2.304-3.626
				c-1.409,4.281-2.078,5.677-3.055,10.718c1.802-0.186,2.609,1.463,3.633,3.116c-0.123,0.661-0.236,1.373-0.354,2.231
				c2.612-0.356,2.883,3.513,5.329,4.967c0.486-2.766-0.918-8.208,1.137-8.685l0.198,0.972c0.128-3.714-2.71-3.535-3.805-5.365
				c0.216-0.592,0.542-1.019,1.051-1.125l0.159,1.086c0.045-0.546,0.019-1.012-0.039-1.419l0.043,0.151l1.357-1.438
				c-0.106,1.421-0.167,2.775-0.022,4.359c1.63-1.379,1.817,2.63,3.279,4.226c2.049-5.384-1.248-7.077-2.913-14.551
				c0,1.251-0.059,2.338-0.135,3.338c-0.494-0.694-0.998-1.391-1.445-2.138c0.079-0.838,0-1.624-0.167-2.415l0.333-0.333
				c-0.029-0.053-0.066-0.104-0.099-0.155c0.058,0.028,0.099,0.035,0.16,0.074l-0.227-0.18c-0.175-0.27-0.349-0.538-0.534-0.793
				c-0.239-0.767-0.535-1.583-0.831-2.503c0-0.029,0-0.052,0.004-0.085c1.823-0.055,2.177-1.24,2.097-3.074
				c0.952-1.419,1.455-3.435,1.796,0.827c0.19,0.137,0.35,0.235,0.487,0.328c-0.915,1.188-0.535,2.816-0.394,4.003l-1.183,0.394
				l0.685,1.119c-0.38,0.095-0.997,0.011-1.987-0.36c1.07,1.751,1.806,1.608,2.367,0.973l0.424,0.698l0.834-2.729
				c0.266-0.211,0.504,0.234,0.774,2.255c3.211,2.238-0.597-2.459,1.259-2.418c-1.442-0.389-2.565-1.42-2.2-3.641
				c0.54,0.196,0.449-0.27,0.225-0.904c0.015-0.042,0.008-0.076,0.026-0.117l-0.058,0.045c-0.307-0.979-0.765-2.317,0.242-2.259
				c-1.747-0.535-2.996-1.987-1.802-5.18c-2.523,1.36-1.516,4.283-1.618,5.815c-0.372-2.362-1.375-5.393-2.013-8.237
				c0.053-0.723,0.102-1.407,0.16-2.208c-0.177,0.186-0.312,0.438-0.463,0.653c-0.225-1.401-0.346-2.681-0.079-3.772
				c2.708,1.031,4.777,2.504,6.435,4.379c0.91,1.029,1.7,2.175,2.445,3.431c0.828,1.214,1.589,2.532,2.345,3.943
				c1.505,2.811,2.979,5.983,4.771,9.349c0.838,1.707,2.041,3.337,3.242,5.04c1.234,1.686,2.602,3.395,4.127,5.085
				c3.035,3.842,0.151-3.915,1.822-4.87c1.183,0.23,2.346,0.69,3.5,1.281l2.294,3.926c0.467,0.765,0.919,1.534,1.404,2.284
				l1.585,2.184c-0.209-0.42-0.419-0.822-0.63-1.249c-0.912-1.37-1.596-2.821-2.436-4.137c-0.629-1.018-1.296-1.975-1.99-2.882
				c1.092,0.582,2.176,1.276,3.246,2.019c1.118,0.786,2.275,1.611,3.414,2.412c1.209,0.759,2.417,1.473,3.611,2.067
				c-0.579-1.408-1.271-2.758-1.777-4.188l-1.585-4.27c-1.08-2.828-2.192-5.625-3.344-8.408l-6.054-17.012
				c-3.554-11.485-7.133-23.012-9.323-34.927c0.171,2.277,0.315,4.556,0.41,6.828c0.206,2.256,0.456,4.501,0.601,6.759
				c0.336,4.497,0.269,9.067,0.47,13.543c-3.504-15.805-5.098-31.978-4.81-48.182c-1.324-12.949-1.482-26.082-0.203-39.041
				c0.146-0.128,0.291-0.284,0.431-0.519l-0.094,0.807c0.463-2.857,2.31-2.539,3.543-4.09c-3.274-0.94-0.096-3.33-2.478-3.598
				c0,0,0.512-0.551,1.023-1.093c0.152-0.151,0.297-0.304,0.434-0.435c0.094,0.498,0.177,1.01,0.234,1.527
				c0.049-0.648,0.121-1.297,0.174-1.947c0.126-0.129,0.22-0.227,0.22-0.227l0.064,0.612c0.674-0.222,1.152-0.505,1.509-0.853
				c-0.292,1.502-0.575,2.999-0.777,4.512c-0.323,2.353-0.645,4.699-0.966,7.037l-0.172,2.752l-0.029-1.391l-0.663,4.488
				c-0.198,1.502-0.292,3.001-0.452,4.503c-0.3,3.003-0.6,5.998-0.903,8.979c-0.197,1.494-0.24,2.996-0.306,4.497l-0.212,4.492
				c-0.106,2.986-0.391,5.989-0.372,8.98l1.414,10.58l0.354,2.634c0.149,0.87,0.344,1.741,0.51,2.619l1.051,5.22
				c-1.194-12.84-1.55-26.107,0.255-38.801c0.956,4.267,2.032,8.635,2.685,13.097c0.189,1.118,0.307,2.244,0.508,3.361
				c0.209,1.119,0.409,2.247,0.619,3.37c0.379,2.248,0.698,4.526,0.947,6.806c-0.118-2.969-0.273-5.952-0.448-8.938
				c-0.129-1.484-0.102-2.99-0.091-4.486l0.012-4.504c0.35-2.292,0.693-4.581,1.163-6.668c0.555-2.096,1.328-3.997,2.277-5.533
				c-0.922,5.771-0.528,10.63,0.507,15.128c0.274-4.947,0.333-9.915,1.093-14.905c0.308-2.48,0.619-4.981,0.926-7.488
				c0.273-2.505,0.896-4.995,1.334-7.505c-1.051,5.467-0.671,11.199-0.762,16.866c-0.123,2.844,0.023,5.676-0.132,8.481
				c-0.149,2.815-0.516,5.613-1.241,8.407c-0.5-1.266-0.892-2.532-1.218-3.858c-0.561,17.896,1.545,35.532,6.493,52.252
				c0.307-1.304,0.426-2.63,0.391-3.962c-0.015-0.661-0.073-1.335-0.155-2.001c-0.069-0.68-0.113-1.379-0.217-2.068
				c-0.366-2.77-1.144-5.615-1.976-8.506c-0.388-1.449-0.902-2.889-1.174-4.365c-0.281-1.485-0.528-2.973-0.695-4.446
				c-0.33-2.943-0.345-5.859,0.338-8.596c3.853,18.38,8.127,37.43,15.872,55.366c2.109,4.395,4.114,8.825,6.401,13.099
				c2.515,4.16,5.059,8.271,7.722,12.249c2.977,3.805,6.026,7.48,9.163,10.99c3.284,3.418,6.941,6.478,10.531,9.388
				c-2.891-4.134-5.928-8.171-8.515-12.471c-8.016-11.915-14.903-24.551-20.547-37.74c-15.106-33.255-21.171-69.987-18.037-106.033
				c0.524-10.644,1.801-21.259,3.921-31.732c2.702-17.147,7.533-33.984,14.449-50.078c0.172,0.179,0.349,0.349,0.521,0.526
				c10.091-21.411,23.706-41.578,40.943-59.571C239.439,198.554,380.056,196.216,468.224,282.315z M60.302,533.617
				c-0.308-0.104-0.56-0.233-0.799-0.345c-0.039-0.052-0.065-0.106-0.1-0.163l-0.259-1.444c0.04-0.107,0.081-0.214,0.123-0.318
				c0.887,1.063,1.13,0.8,1.145,0.128C60.415,532.176,60.394,532.895,60.302,533.617z M60.368,530.596
				c-0.008-0.027-0.02-0.04-0.036-0.063c-0.059-0.489-0.134-0.992-0.167-1.341c0.039-0.082,0.076-0.159,0.111-0.23
				C60.321,529.512,60.344,530.059,60.368,530.596z M62.399,526.639c0.236,0.079,0.434,0.184,0.657,0.266l-0.588,0.901
				c-0.08-0.385-0.16-0.773-0.239-1.163C62.286,526.643,62.343,526.63,62.399,526.639z M52.888,533.174
				c-0.354-0.42-0.725-0.857-0.947-1.354c-0.073-0.848-0.114-1.613-0.102-2.292C52.193,530.748,52.543,531.953,52.888,533.174z
				 M38.568,438.658c-0.084,0.627-0.16,1.237-0.222,1.83c-0.241-0.385-0.44-0.793-0.523-1.252
				C38.058,438.971,38.311,438.768,38.568,438.658z M42.708,429.338c-0.14-0.627-0.304-1.262-0.466-1.894
				c0.156-0.384,0.315-0.774,0.542-1.185c0.555,0.197,0.999,0.215,1.378,0.107c-0.084,0.756-0.14,1.506-0.213,2.263
				C43.529,428.864,43.11,429.095,42.708,429.338z M100.715,353.064c-0.286,1.024-0.537,2.074-0.738,3.104
				c0.368,0.812,0.485,1.601-0.55,2.611c-0.986,4.801-2.222,9.087-4.032,11.98c-3.152,4.991-4.984,10.348-6.098,15.691
				c-0.073-2.424-0.205-4.825-0.312-7.125c3.042-9.19,6.599-18.116,10.358-26.7c-0.524,1.333,0.026,2.308,0.463,3.185
				C100.041,354.877,100.364,353.966,100.715,353.064c0.676-2.528,1.408-5.046,2.305-7.408
				C102.596,348.252,101.626,350.648,100.715,353.064z M49.957,383.924c-0.011,1.705-0.072,3.398-0.174,5.098
				c-0.407-0.858-0.745-2.196-0.976-4.577C49.204,384.192,49.589,384.028,49.957,383.924z"/>
			<path fill="#FFFFFF" d="M60.415,540.247l0.058,0.007c0.09,0.533,0.169,1.013,0.231,1.475l-0.022,0.196v-0.007
				C60.595,541.354,60.516,540.799,60.415,540.247z"/>
			<path fill="#FFFFFF" d="M45.059,494.651c0.023,0.347,0.047,0.703,0.077,1.051C45.075,495.277,45.053,494.938,45.059,494.651z"/>
			<path fill="#FFFFFF" d="M60.018,541.132c0.003-0.008,0-0.013,0-0.022c0.011,0.015,0.02,0.029,0.031,0.052
				c-0.003,0.06-0.003,0.11-0.008,0.179C60.029,541.267,60.029,541.213,60.018,541.132z"/>
			<path fill="#FFFFFF" d="M183.841,631.236c2.735-1.236,6.417,3.541,9.719,3.6c-1.834-2.031-3.623-3.872-5.399-5.619
				c-9.084-6.522-17.708-13.745-25.786-21.634c-3.744-3.655-7.346-7.441-10.812-11.34
				C160.415,609.078,171.095,621.313,183.841,631.236z"/>
			<path fill="#FFFFFF" d="M211.671,650.913c-1.449-1.403-3.38-2.464-5.39-3.497C208.036,648.591,209.816,649.758,211.671,650.913z"
				/>
			<path fill="#FFFFFF" d="M120.844,578.365c-1.423-2.533-3.027-4.968-4.71-7.353c-1.762-2.343-3.217-4.866-4.726-7.333
				c-1.49-2.474-2.924-4.978-4.149-7.519c2.166,4.727,4.201,9.508,6.5,14.121c2.535,4.517,5.044,8.994,7.537,13.438
				c1.068,0.912,2.184,1.756,3.38,2.519c-0.546-1.373-1.204-2.67-1.859-3.967C122.215,580.939,121.557,579.639,120.844,578.365z"/>
			<path fill="#FFFFFF" d="M127.056,598.522c6.564,8.559,12.894,17.14,18.859,25.653
				C140.353,615.229,134.067,606.479,127.056,598.522z"/>
			<path fill="#FFFFFF" d="M129.578,615.768c1.271,1.635,2.526,3.296,3.818,4.932l4.119,4.639c2.78,3.09,5.56,6.172,8.333,9.249
				c-2.33-4.045-4.92-7.896-7.696-11.603c-0.705-0.92-1.411-1.838-2.116-2.764l-1.083-1.374l-1.014-1.437
				c-1.358-1.911-2.754-3.797-4.168-5.674c-2.507-2.65-5.135-5.204-7.565-7.932l-7.083-8.389c2.305,3.485,4.595,6.968,6.894,10.434
				C124.545,609.165,127.063,612.462,129.578,615.768z"/>
			<path fill="#FFFFFF" d="M77.911,611.161c-1.464-0.851-2.769-1.819-3.951-2.907c1.27,2.311,2.544,4.634,3.826,6.966
				C77.551,613.806,77.566,612.444,77.911,611.161z"/>
			<path fill="#FFFFFF" d="M110.5,653.968c-1.061-1.25-2.169-2.51-3.318-3.761c-1.148-1.258-2.366-2.477-3.496-3.864
				c-0.149-0.475-1.09-0.604-2.215-0.849C104.286,648.591,107.471,651.265,110.5,653.968z"/>
		</g>
		<g>
			<path fill="#FFFFFF" d="M117.938,672.36c0.698-1.028-0.239-3.471-1.886-5.415C117.228,669.124,110.471,668.55,117.938,672.36z"/>
			<path fill="#FFFFFF" d="M46.698,553.362c0,0-0.223,0.445-0.452,0.911c-0.206,0.443-0.413,0.902-0.413,0.902
				C46.573,555.602,47.214,555.795,46.698,553.362z"/>
			<path fill="#FFFFFF" d="M45.353,556.248l0.481-1.072c-0.296-0.188-0.588-0.41-0.799-0.521l0.109-3.745
				c0.022,2.278-0.511,2.181-1.212,1.39l0.537-1.812l-1.503,0.547c-0.883-1.251-1.777-2.496-2.122-1.341
				c1.581,0.56,2.214,6.452,3.222,2.923l0.701,2.044C44.726,554.819,44.875,555.262,45.353,556.248z"/>
			<path fill="#FFFFFF" d="M32.647,547.451c0.318-0.421,0.543-0.8,0.795-1.174C32.969,546.191,32.612,546.341,32.647,547.451z"/>
			<path fill="#FFFFFF" d="M43.432,550.409l0.596-1.165C43.149,548.646,42.277,547.644,43.432,550.409z"/>
			<path fill="#FFFFFF" d="M45.026,547.295l-0.998,1.949C44.767,549.754,45.52,549.947,45.026,547.295z"/>
			<path fill="#FFFFFF" d="M47.101,581.803c0.55,0.015,0.865-0.36,1.072-0.897C47.661,580.706,47.232,580.902,47.101,581.803z"/>
			<path fill="#FFFFFF" d="M53.901,582.17l0.261-0.495C54.034,581.731,53.959,581.938,53.901,582.17z"/>
			<path fill="#FFFFFF" d="M53.145,573.651l-0.947,1.579c-0.546-0.375-1.43,0.253-2.284-0.802l0.213-2.282
				c0.22,0.215,0.43,0.408,0.721,0.685c-0.081-1.031-0.315-1.421-0.627-1.577l0.119-1.27c-0.402,0.136-0.63,0.562-0.745,1.163
				c-0.534-0.007-1.171,0.046-1.793-0.735c0,0,0.03-0.303,0.11-0.769c0.064-0.465,0.158-1.074,0.246-1.69
				c0.19-1.222,0.38-2.439,0.38-2.439c-0.648,0.204-0.949,1.063-1.049,2.308c-0.111,1.236-0.029,2.858,0.237,4.505
				c0.46,3.316,1.092,6.958,0.455,8.576c0.773,0.296,1.732,1.503,2.227,2.712c-0.03,0.17-0.072,0.348-0.122,0.48
				c0.118,0.044,0.246,0.137,0.364,0.215c0.208,0.841,0.117,1.593-0.52,1.944c1.188,1.848,1.866,2.463,2.269,2.508
				c-0.055,0.048-0.072,0.11-0.134,0.149c4.15,6.235,1.309-2.611,5.027,0.829c-1.224-0.834-1.921-3.502-1.708-4.583l-0.644,1.338
				c-0.441-0.631-0.808-1.444-0.972-2.251c-0.155-0.812-0.179-1.587-0.056-2.074l-1.472,2.824l-1.562-2.209
				c2.875,0.128-2.891-10.365,0.986-6.959l-0.331,0.55c0.444,1.141,1.459,1.956,2.394,2.47l-0.595,1.042
				c0.94,2.395,4.684,3.245,3.721,2.697c-0.64-1.164-1.537-2.197-2.026-3.217c0.637,0.227,0.979,0.215,0.581-0.008
				c-0.28-0.509-0.599-0.977-0.914-1.436c0.012-0.2,0.046-0.389,0.11-0.585l-0.239,0.403
				C53.568,576.313,52.645,575.017,53.145,573.651z"/>
			<path fill="#FFFFFF" d="M49.062,585.618c1.524,5.714-3.561-1.354-0.637,4.47C50.346,590.235,50.123,588.292,49.062,585.618z"/>
			<path fill="#FFFFFF" d="M63.097,603.013c-0.08,1.481,0.395,3.32,1.609,3.958c-2.628-4.079,1.104-2.74,0.511-5.422
				c-0.792-0.924-1.403-0.72-1.767-0.023c0.326-2.039,4.771-0.916,0.004-4.348C63.44,599.953,60.814,599.194,63.097,603.013z"/>
			<path fill="#FFFFFF" d="M98.832,650.527c0.008,0.024,0.014,0.052,0.026,0.074c0.003-0.01,0.007-0.01,0.018-0.016
				c0.51,0.522,1.071,1.182,2.035,1.882c0.618,0.186,0.981,0.212,1.19,0.151c0.276,0.261,0.564,0.485,0.873,0.639
				c0.049-2.363-0.646-3.704-1.662-5.165c0.164-0.02,0.345-0.02,0.576,0.009l-0.713-0.191c-1.235-1.637-3.018-3.342-4.817-6.526
				c0.677,2.227,1.002,3.944,1.382,5.569l-0.387-0.111C97.613,647.929,96.847,648.368,98.832,650.527z"/>
			<path fill="#FFFFFF" d="M97.356,646.836c-0.123-0.493-0.513-1.156-1.465-2.18c0.38,0.701,0.814,1.416,1.136,2.094L97.356,646.836
				z"/>
			<path fill="#FFFFFF" d="M67.478,616.727c0.095,0.384,0.219,0.77,0.269,1.144C67.811,617.356,67.675,617.013,67.478,616.727z"/>
			<path fill="#FFFFFF" d="M65.468,615.995c0.846-0.038,1.616,0.17,2.01,0.731c-0.618-2.098-1.71-4.343-3.213-4.751
				c-0.329-0.754-0.527-1.411-0.669-2.02c0.275,0.123,0.511,0.302,0.651,0.553c-0.187-0.981-0.528-1.963-0.979-2.75
				c-0.095-1.339-0.142-2.408-1.243-3.761l-1.32-0.458c-0.29-1.935,0.037-3.05-1.217-4.768l-2.593-1.049
				c0.64,0.172,1.324,1.011,1.888,2.101c0.617,1.069,1.188,2.366,1.475,3.554l-1.176-0.405c0.411,0.085,0.85,0.417,1.284,0.894
				c0.253,1.362,0.127,2.477-0.733,2.637l1.815-0.438c-0.564,1.526,0.543,3.89,1.488,6c-0.151,0.222-0.338,0.392-0.618,0.444
				l0.725-0.187c0.986,2.224,1.71,4.14-0.046,4.417c1.574,0.496,1.939-0.03,1.74-1c1.514,3.399,4.481,7.189,1.75,7.733
				C70.721,624.717,66.929,619.384,65.468,615.995z"/>
			<path fill="#FFFFFF" d="M107.087,658.888c1.036-1.889,2.644,1.781,4.579,2.745c-0.019-5.776-3.698-6.15-7.926-12.508
				C105.296,653.198,105.529,655.717,107.087,658.888z"/>
			<path fill="#FFFFFF" d="M118.215,660.376l2.2,2.281l-1.585-3.718c0.761,1.992-0.437,1.495-1.889,0.695
				c-1.534-0.968-3.327-2.334-3.167-0.822c0.724-0.025,1.636,0.89,2.453,1.719c0.866,0.782,1.619,1.497,1.915,1.172
				c0.167,0.198,0.323,0.404,0.493,0.557l-0.456-0.608C118.295,661.45,118.317,661.057,118.215,660.376z"/>
			<path fill="#FFFFFF" d="M118.83,658.939c-0.083-0.216-0.18-0.455-0.311-0.728L118.83,658.939z"/>
			<path fill="#FFFFFF" d="M89.622,645.352c1.416,5.328,0-0.497,3.812,3.277C93.358,646.584,90.907,646.62,89.622,645.352z"/>
			<path fill="#FFFFFF" d="M127.469,668.264c0.523,1.017,1.115,1.764,1.741,2.333L127.469,668.264z"/>
			<path fill="#FFFFFF" d="M32.469,543.157c-0.148-0.692-0.223-1.396-0.288-1.921c-0.073-0.525-0.113-0.876-0.113-0.876
				s0.008,0.343,0.026,0.853c0.026,0.502,0.019,1.192,0.099,1.852c0.122,1.346,0.246,2.693,0.246,2.693l0.554,0.168
				C32.992,545.926,32.73,544.549,32.469,543.157z"/>
			<path fill="#FFFFFF" d="M49.309,584.938c0.5-0.005,0.78-0.348,0.97-0.844C49.815,583.921,49.421,584.104,49.309,584.938z"/>
			<path fill="#FFFFFF" d="M55.577,585.157l0.221-0.455C55.679,584.769,55.619,584.946,55.577,585.157z"/>
			<path fill="#FFFFFF" d="M51.223,588.369c1.556,5.162-3.229-1.223-0.512,4.065C52.443,592.588,52.341,590.739,51.223,588.369z"/>
			<path fill="#FFFFFF" d="M60.724,598.37l0.231-0.913c-0.865-3.228,4.838-1.185,0.178-4.996
				C60.976,595.169,58.396,594.139,60.724,598.37z"/>
			<path fill="#FFFFFF" d="M86.199,627.359c-0.441-0.505-1.263-1.264-2-1.747C84.624,626.202,85.216,626.805,86.199,627.359z"/>
			<path fill="#FFFFFF" d="M64.25,610.509c0.069,0.347,0.163,0.713,0.186,1.069C64.515,611.1,64.413,610.776,64.25,610.509z"/>
			<path fill="#FFFFFF" d="M109.086,652.339l1.873,2.22l-1.484-4.212c2.14,5.403-4.66-2.285-4.444,0.428
				C106.708,650.727,109.411,655.99,109.086,652.339z"/>
			<path fill="#FFFFFF" d="M86.756,640.665c0.041-1.838-2-1.989-3.119-3.097c-0.655-1.343-1.178-2.557-1.259-3.389
				c1.285,0.893,2.899,2.287,4.075,2.855c0,0,0.14,1.08,0.28,2.152c0.076,0.544,0.151,1.081,0.205,1.492
				c0.05,0.402,0.111,0.652,0.111,0.652c2.185,0.881,6.748,5.021,7.414,3.19c0.653,0.041,0.44-0.502,0.038-1.228
				c0-0.008-0.003-0.017-0.003-0.023c0.609,0.544,1.011,0.975,1.391,1.385c-0.731-1.361-1.545-2.709-2.384-4.029
				c0.151-0.211,0.491-0.322,1.16-0.245l-1.63-0.458c-0.355-0.549-0.703-1.097-1.066-1.6c1.239-1.741,4.89,0.389,4.93,3.387
				c4.266,1.983-3.09-5.268,1.18-2.29c-2.757-4.058-3.051-3.377-3.74-2.733c-0.641,0.614-1.889,1.386-5.855-3.235
				c-0.569-1.813,0.214-1.729,1.209-1.12c0.359,0.615,0.594,1.329,0.564,2.101c1.452,0.807,1.389,0.218,1.005-0.614
				c0.232,0.171,0.486,0.333,0.775,0.499c-0.255-0.282-0.623-0.653-1.038-1.017c-0.659-1.232-1.528-2.532,0.445-0.93
				c-2.541-4.414-2.613-3.067-3.489-2.535c-0.351-0.147-0.812-0.188-1.458-0.087c-0.229-0.112-0.5-0.283-0.804-0.505
				c-0.152-1.646-2.346-3.061-2.501-4.055c0.272,0.031,0.617,0.165,1.02,0.432c-0.275-0.386-0.471-0.75-0.654-1.086
				c0.156-0.092,0.347-0.181,0.616-0.271c-1.854-2.024-3.073-2.783-4.39-3.333c-0.493-0.745-1.118-1.422-1.322-1.948l2.602,0.274
				c-1.19-1.807-1.662-1.934-1.993-1.659c-0.963-1.204-1.816-1.895-2.616-2.362c-0.349-0.77-0.91-1.586-1.592-2.232l1.744,0.21
				c-1.943-2.944-1.82-1.074-2.567-0.815c-0.179-0.105-0.36-0.227-0.553-0.287c0.124,0.117,0.215,0.198,0.322,0.304
				c-0.311-0.022-0.751-0.298-1.453-1.104c1.073-0.029-0.399-4.024-2.451-4.882c6.068,6.141-2.927,3.748-2.153,5.543
				c-0.319-0.303-0.577-1.01-0.989-1.706c0.128-1.339,1.991-1.26,1.52-3.354c-1.494-1.74-2.396,0.188-2.257,2.372
				c-0.019-0.011-0.025-0.023-0.037-0.039c0.261,2.978,1.343,3.807,2.757,4.422c1.418,0.606,3.048,1.074,4.343,3.474
				c-0.876,0.147-1.624,0.305-1.696,0.69c-0.039,0.03-0.062,0.081-0.092,0.118c-0.493-0.556-0.948-1.801-1.976-2.639
				c0.334,2.289,1.119,3.334,2.099,3.987c0.345,1.272,0.948,2.869-0.449,2.98c3.891,3.159,2.141-0.256,2.003-2.212
				c1.432,0.57,3.003,1.179,4.32,3.526c0.205,0.524,0.405,1.027,0.651,1.459c-0.742-0.38-1.27-0.578-1.661-0.658
				c-0.272-0.533-0.535-1.104-0.868-1.556c-2.085,1.741-0.899,3.548,0.668,5.405c0.056,0.602-0.131,1.074-0.905,1.169
				c2.063,1.455,2.716,1.478,2.815,0.91c0.435,0.52,0.807,1.048,1.046,1.614c0.012,0.353,0.114,0.709,0.271,1.056
				c0.036,0.452,0,0.912-0.206,1.385l-0.55-0.392l0.459,3.214c1.577-0.096,1.633-1.31,1.138-2.874
				c1.012,1.273,2.489,2.563,3.512,3.907c0.388,1.939,0.377,1.508,0.754,1.22c0.426,0.896,0.572,1.835,0.181,2.852l-0.594-0.422
				c0,0,0.141,0.883,0.281,1.767c0.178,0.856,0.356,1.711,0.356,1.711c2.652-0.315,1.229-2.992-0.125-5.982
				C84.872,639.188,85.486,639.211,86.756,640.665z M78.271,623.076c-0.022-0.025-0.037-0.035-0.063-0.048l0.047-0.01
				C78.264,623.04,78.268,623.06,78.271,623.076z"/>
			<path fill="#FFFFFF" d="M118.636,662.258l2.03,2.718c-0.221-1.356,2.059-1.286,2.583-1.495
				C121.693,663.754,120.055,663.538,118.636,662.258z"/>
			<path fill="#FFFFFF" d="M133.067,667.264c-0.68-0.245-1.371-0.479-1.995-0.718c-2.558-0.848-4.427-1.079-1.81,2.741
				c0.512,0.589,0.949,1.23,1.373,1.858c0.482-0.377,4.04-2.248,4.35-2.46c0.463-0.299,0.811-0.537,1.123-0.71
				c-0.314-0.032-0.662-0.081-1.046-0.167C134.443,667.661,133.749,667.491,133.067,667.264z"/>
			<path fill="#FFFFFF" d="M45.325,568.792c0.314,2.462-5.78-0.544-0.182,5.731C46.163,573.822,46.163,571.198,45.325,568.792z"/>
			<path fill="#FFFFFF" d="M10.366,426.934c0.452-0.278,0.789-0.54,1.165-0.801C11.116,425.881,10.729,425.886,10.366,426.934z"/>
			<path fill="#FFFFFF" d="M18.44,396.344l0.523-3.588C18.513,394.65,18.382,395.742,18.44,396.344z"/>
			<path fill="#FFFFFF" d="M14.663,399.609c-0.789,1.327-2.515,1.064-3.583,4.924C13.016,400.799,13.623,404.164,14.663,399.609z"/>
			<polygon fill="#FFFFFF" points="12.668,411.98 10.722,417.571 11.199,417.977 			"/>
			<path fill="#FFFFFF" d="M11.538,464.239c0.512,0.204,0.934-0.022,1.323-0.45C12.455,463.422,11.985,463.45,11.538,464.239z"/>
			<path fill="#FFFFFF" d="M11.997,468.52c-0.625,5.885-2.84-2.563-2.195,3.928C11.535,473.293,12.035,471.384,11.997,468.52z"/>
			<path fill="#FFFFFF" d="M18.027,504.237c-0.049,0.391-0.072,0.795-0.159,1.162C18.11,504.946,18.11,504.571,18.027,504.237z"/>
			<path fill="#FFFFFF" d="M16.418,502.826c0.795,0.277,1.435,0.754,1.609,1.411c0.174-2.179-0.04-4.675-1.299-5.601
				c-0.032-0.835,0.018-1.504,0.101-2.134c0.215,0.223,0.367,0.469,0.417,0.753c0.17-0.983,0.205-2.013,0.061-2.924
				c0.395-1.281,0.735-2.296,0.189-3.958l-1.065-0.908c0.42-1.903,1.126-2.829,0.572-4.89l-2.048-1.925
				c0.543,0.403,0.872,1.421,1.009,2.653c0.192,1.216,0.257,2.634,0.099,3.851l-0.944-0.814c0.348,0.24,0.637,0.708,0.871,1.311
				c-0.243,1.355-0.767,2.361-1.619,2.19l1.847,0.253c-1.067,1.213-0.883,3.815-0.766,6.134c-0.222,0.15-0.456,0.245-0.732,0.196
				l0.75,0.078c0.12,2.448,0.108,4.491-1.629,4.111c1.289,1.033,1.82,0.689,1.987-0.297c0.192,3.727,1.593,8.342-1.137,7.852
				C18.186,512.873,16.556,506.525,16.418,502.826z"/>
			<path fill="#FFFFFF" d="M56.286,576.99l-0.788-2.798C55.627,575.319,55.907,576.235,56.286,576.99z"/>
			<path fill="#FFFFFF" d="M13.813,408.733c-0.637,1.239-2.231,1.044-3.016,4.632C12.375,409.873,13.116,412.945,13.813,408.733z"/>
			<path fill="#FFFFFF" d="M11.734,422.866c0.111-0.696,0.297-1.378,0.417-1.897c0.122-0.516,0.21-0.859,0.21-0.859
				s-0.113,0.327-0.277,0.801c-0.158,0.485-0.415,1.113-0.573,1.773c-0.367,1.297-0.732,2.596-0.732,2.596l0.458,0.357
				C11.237,425.645,11.484,424.258,11.734,422.866z"/>
			<path fill="#FFFFFF" d="M12.466,467.978c0.471,0.169,0.854-0.048,1.215-0.433C13.309,467.207,12.881,467.233,12.466,467.978z"/>
			<path fill="#FFFFFF" d="M13.033,471.857c-0.397,5.391-2.573-2.309-1.936,3.622C12.656,476.243,13.221,474.48,13.033,471.857z"/>
			<path fill="#FFFFFF" d="M17.249,497.263c-0.071,0.352-0.105,0.721-0.216,1.063C17.279,497.91,17.303,497.573,17.249,497.263z"/>
			<path fill="#FFFFFF" d="M49.213,564.628c0.171-0.145,0.334-0.499,0.475-1.171l1.242,2.916l-0.173-4.834
				c0.228,3.127-0.801,2.159-1.983,0.747c-1.086-1.458-2.266-3.384-2.664-1.913c0.69,0.241,1.215,1.419,1.683,2.496
				c0.528,1.041,0.973,1.986,1.361,1.797c0.09,0.241,0.158,0.48,0.264,0.692L49.213,564.628z"/>
			<path fill="#FFFFFF" d="M53.279,568.184c-1.551-0.31-3.004-1.11-3.861-2.825l0.919,3.278
				C50.615,567.291,52.709,568.191,53.279,568.184z"/>
			<path fill="#FFFFFF" d="M62.737,576.531c-0.52-0.351-1.107-0.77-1.665-1.236c-0.542-0.474-1.096-0.947-1.605-1.393
				c-2.074-1.727-3.735-2.62-2.661,1.901c0.264,0.728,0.438,1.483,0.613,2.224c0.581-0.173,4.569-0.625,4.935-0.704
				c0.542-0.111,0.952-0.199,1.303-0.255C63.371,576.929,63.068,576.748,62.737,576.531z"/>
			<path fill="#FFFFFF" d="M24.353,370.626c-0.8,0.451-1.205,0.677-1.581,0.255c-0.195,0.528-0.402,1.055-0.592,1.578
				C22.643,373.005,23.23,372.904,24.353,370.626z"/>
			<path fill="#FFFFFF" d="M22.771,370.882c0.003-0.02,0.015-0.044,0.023-0.063c-0.008,0.019-0.023,0.034-0.034,0.054
				C22.764,370.873,22.771,370.877,22.771,370.882z"/>
			<path fill="#FFFFFF" d="M441.904,280.056c88.163,86.101,90.487,228.046,5.194,317.04
				c-45.608,47.59-107.037,70.357-167.804,68.107c-0.467,16.573-2.523,33.102-1.665,49.639
				c74.172,2.688,149.143-25.155,204.807-83.235c104.18-108.696,101.333-282.069-6.348-387.231
				c-107.682-105.163-279.423-102.292-383.6,6.406c-16.892,17.623-30.963,36.957-42.229,57.415c0.123,0.122,0.25,0.256,0.383,0.377
				c-1.157,2.708-2.398,5.435-3.886,8.155c-0.247,0.571-0.253,1.23-0.16,1.875c-1.819,3.526-3.62,7.066-5.398,10.615
				c-0.858,1.227-1.703,2.497-2.553,3.862c0.056,0.368-0.003,0.864-0.079,1.401c-0.713,1.463-1.408,2.937-2.109,4.396
				c-0.335,0.255-0.668,0.51-0.99,0.785c-1.074,2.744-2.135,5.463-3.198,8.174c-0.895,1.979-1.817,3.937-2.679,5.924
				c-0.678,1.569-1.33,3.138-1.983,4.701c0.008,0,0.011,0,0.016-0.007c-0.016,0.03-0.03,0.055-0.045,0.083
				c-1.692,4.05-3.274,8.146-4.783,12.264c1.143-1.777,2.591-4.188,3.734-5.184c-0.308,0.911-0.632,1.83-0.961,2.747
				c-0.083,0.29-0.175,0.578-0.266,0.859c-0.264,0.342-0.433,0.666-0.341,1.11c-0.132,0.42-0.263,0.841-0.39,1.261
				c-0.778,1.585-1.541,3.092-2.265,3.755c0.463,0.289,0.854,0.715,1.199,1.223c0.056,0.946,0.114,1.886,0.137,2.827
				c-1.246,1.99-2.359,5.72-3.514,6.893c0.083,0.045,0.159,0.122,0.252,0.17c-0.199,0.365-0.403,0.794-0.637,1.388l1.771-0.12
				c0.163,0.26,0.315,0.523,0.463,0.811c-0.337,0.916-0.736,1.968-1.366,2.366c0.575-0.122,1.206-0.778,1.792-1.429
				c0.243,0.569,0.471,1.155,0.695,1.696c-0.137,1.297-0.286,2.593-0.463,3.885c-0.753,0.165-1.542,0.204-2.563,0.715
				c-0.429-0.417-0.908-0.397-1.495,0.961c-0.068-0.091-0.117-0.205-0.137-0.401l-0.091,0.624c0.076-0.064,0.137-0.104,0.196-0.155
				c-0.12,0.286-0.242,0.607-0.374,1.016l2.321-0.264c-0.333,0.928-0.63,2.51-1.38,3.045c0.33-0.084,0.653-0.375,0.978-0.722
				c-0.482,1.325-1.028,2.611-1.776,3.866c-0.306-0.285-0.537-0.578-0.754-0.83l0.08-0.576c-0.042,0.206-0.076,0.363-0.112,0.539
				c-0.716-0.873-1.125-1.339-2.675,0.367c0,0,0.189,1.368,0.374,2.745c0.081,0.688,0.229,1.374,0.324,1.893
				c0.1,0.515,0.164,0.861,0.164,0.861c0.949-1.06,1.857-2.104,2.824-3.1c0.52-0.372,1.107-0.846,1.602-0.978
				c-1.082,2.761-1.472,5.309-2.773,7.761c-0.269-0.238-0.482-0.472-0.678-0.683l0.669-3.498l-1.455,2.791
				c-0.221-0.109-0.467-0.086-0.767,0.113l-0.037-0.328l-0.239,0.537c-0.198,0.17-0.418,0.393-0.68,0.713l0.111,0.553l-1.924,4.376
				l2.783,1.668c-0.105,0.536-0.208,1.007-0.313,1.46l-0.091,0.17l-0.157-1.311c0,0-0.623,1.422-1.243,2.846
				c-0.588,1.421-1.1,2.873-1.1,2.873l0.546,0.311c-0.375,0.415-0.789,0.764-1.275,1.111c0.571,0.349,1.179,1.184,1.827,0.593
				l-0.366,2.845l1.19-0.541c-0.322,0.46-0.59,0.987-0.781,1.652c-0.095,0.375-0.178,0.741-0.269,1.104
				c-0.239,0.318-0.494,0.598-0.789,0.859c-0.748-1.172-1.585-2.289-0.853-4.224c-2.85,3.479-3.967,4.538-6.692,8.882
				c1.738,0.488,1.911,2.316,2.275,4.223c-0.351,0.578-0.713,1.209-1.129,1.963c2.563,0.624,1.433,4.318,3.192,6.568
				c1.028-1.715,1.658-5.044,2.687-6.689c0.042,3.128,0.45,5.877,1.178,8.514c-0.492,4.534-0.329,8.127,0.265,11.341
				c-0.127,0.223-0.26,0.411-0.405,0.567c0.615,0.558,1.078,2.038,1.107,3.348c-0.093,0.147-0.188,0.292-0.283,0.402
				c0.096,0.076,0.179,0.217,0.262,0.339c-0.105,0.852-0.463,1.514-1.184,1.618c0.452,2.148,0.857,2.98,1.216,3.159
				c-0.062,0.029-0.104,0.078-0.178,0.093c1.18,5.281,1.781,1.948,2.86,1.37c0.528,1.542,1.051,3.147,1.552,4.884
				c0.022,1.012,0.054,2.02,0.083,3.035c-0.141,0.529-0.167,1.321,0.011,2.618l0.068-0.1c0.069,1.957,0.157,3.916,0.258,5.865
				c-0.405,1.227-0.466,2.683,0.221,3.587c0.083,1.146,0.17,2.303,0.278,3.449c-0.333,1.576-0.134,2.579,0.348,3.365
				c0.16,1.377,0.354,2.758,0.562,4.124c-0.083,1.104,0.09,1.912,0.417,2.557c0.076,0.438,0.165,0.865,0.251,1.297
				c-0.114,1.123-0.322,2.203-1.415,1.866c1.361,2.377,1.854,2.318,2.124,1.471c0.123,0.537,0.239,1.088,0.366,1.629
				c-0.83,1.07-0.442,2.644,0.142,4.33c-0.163,0.584-0.512,0.953-1.255,0.755c1.399,2.119,1.998,2.387,2.294,1.874
				c0.22,0.653,0.376,1.289,0.402,1.904c-0.125,0.333-0.152,0.703-0.132,1.082c-0.126,0.432-0.333,0.852-0.683,1.21l-0.377-0.563
				l-0.724,3.159c1.506,0.489,1.995-0.622,2.088-2.26c0.488,1.555,1.404,3.29,1.875,4.916c-0.333,1.944-0.185,1.551,0.271,1.418
				c0.071,0.985-0.13,1.91-0.85,2.717l-0.405-0.606c0,0-0.187,0.87-0.373,1.749c-0.141,0.858-0.282,1.731-0.282,1.731
				c2.583,0.659,2.22-2.355,2.027-5.625c0.333-0.041,0.788,0.152,1.313,1.278c0.123,0.455,0.242,0.917,0.367,1.371
				c-0.007,0.042-0.02,0.102-0.02,0.102c0.02,0.022,0.04,0.046,0.062,0.061c0.467,1.755,0.909,3.519,1.308,5.293
				c-0.156-0.209-0.294-0.426-0.409-0.659c-0.587,5.477,0.17-0.471,2.384,4.431c0.54-1.565-0.855-2.427-1.808-3.569
				c0.207-0.465,0.417-0.992,0.63-1.539l0.007,0.248l0.588,0.203l-0.136-1.047c1.222,1.677,2.427,3.084,3.151,2.259
				c0.25,0.113,0.38,0.057,0.452-0.095c-0.022,0.513-0.049,1.104-0.079,1.698c-0.039,1.549,0.007,3.084,0.007,3.084l0.615,0.087
				c-0.206,0.518-0.463,1.01-0.789,1.504c0.47,0.074,1.046,0.38,1.476,0.258c0.07,0.211,0.136,0.408,0.232,0.659
				c0,0.033-0.002,0.056,0,0.082c0.007-0.019,0.018-0.012,0.029-0.019c0.292,0.672,0.572,1.492,1.219,2.5
				c0.312,0.236,0.546,0.386,0.738,0.474c-0.107,0.671-0.312,1.251-0.604,1.815c-1.115-0.818-2.298-1.541-2.301-3.621
				c-1.411,4.278-2.078,5.68-3.058,10.726c1.802-0.187,2.609,1.456,3.634,3.098c-0.121,0.672-0.235,1.384-0.352,2.242
				c2.612-0.361,2.884,3.504,5.331,4.962c0.482-2.759-0.917-8.207,1.133-8.681l0.199,0.978c0.129-3.718-2.708-3.532-3.803-5.362
				c0.22-0.595,0.539-1.021,1.049-1.127l0.155,1.076c0.047-0.544,0.023-1-0.041-1.409l0.045,0.147l1.356-1.437
				c-0.104,1.413-0.167,2.782-0.021,4.356c1.634-1.385,1.817,2.63,3.285,4.231c2.049-5.389-1.251-7.081-2.91-14.55
				c-0.007,1.252-0.067,2.326-0.137,3.332c-0.496-0.688-0.994-1.389-1.447-2.138c0.079-0.835,0-1.613-0.167-2.413l0.333-0.333
				c-0.035-0.057-0.073-0.101-0.102-0.153c0.056,0.029,0.102,0.034,0.159,0.061l-0.228-0.166c-0.17-0.263-0.346-0.537-0.532-0.806
				c-0.238-0.754-0.535-1.57-0.831-2.488c0-0.034,0-0.058,0.006-0.088c1.824-0.06,2.179-1.244,2.096-3.074
				c0.949-1.416,1.456-3.438,1.798,0.813c0.189,0.147,0.348,0.248,0.485,0.346c-0.915,1.186-0.535,2.811-0.395,4l-1.184,0.389
				l0.688,1.126c-0.376,0.092-0.995,0-1.981-0.356c1.066,1.748,1.801,1.594,2.354,0.963l0.435,0.703l0.83-2.724
				c0.27-0.216,0.501,0.232,0.778,2.255c3.209,2.225-0.595-2.463,1.259-2.425c-1.44-0.385-2.562-1.425-2.199-3.639
				c0.538,0.193,0.447-0.268,0.223-0.907c0.008-0.05,0.011-0.079,0.028-0.116l-0.057,0.047c-0.307-0.993-0.77-2.316,0.242-2.26
				c-1.744-0.542-2.995-1.992-1.808-5.187c-2.522,1.363-1.51,4.282-1.621,5.807c-0.371-2.351-1.368-5.383-2.014-8.226
				c0.055-0.729,0.102-1.404,0.16-2.205c-0.175,0.173-0.312,0.435-0.467,0.646c-0.224-1.403-0.341-2.684-0.08-3.77
				c2.708,1.038,4.779,2.504,6.437,4.383c0.913,1.025,1.702,2.167,2.44,3.418c0.828,1.222,1.595,2.547,2.345,3.948
				c1.509,2.814,2.978,5.985,4.776,9.352c0.837,1.708,2.035,3.338,3.243,5.041c1.231,1.689,2.595,3.391,4.125,5.077
				c3.03,3.852,0.152-3.903,1.821-4.863c1.184,0.224,2.348,0.689,3.5,1.282l2.294,3.931c0.467,0.756,0.919,1.527,1.404,2.284
				l1.581,2.181c-0.209-0.419-0.417-0.834-0.63-1.248c-0.91-1.368-1.592-2.823-2.438-4.147c-0.626-1.013-1.29-1.971-1.988-2.875
				c1.093,0.587,2.173,1.271,3.25,2.009c1.115,0.793,2.276,1.611,3.413,2.418c1.211,0.764,2.413,1.478,3.612,2.07
				c-0.577-1.409-1.271-2.748-1.779-4.186l-1.587-4.274c-1.08-2.822-2.19-5.62-3.341-8.407l-6.052-17.006
				c-3.557-11.48-7.139-23.008-9.326-34.925c0.171,2.273,0.313,4.546,0.41,6.828c0.203,2.258,0.45,4.504,0.597,6.755
				c0.343,4.496,0.267,9.074,0.471,13.542c-3.5-15.802-5.096-31.983-4.809-48.179c-1.327-12.956-1.479-26.08-0.204-39.043
				c0.151-0.135,0.297-0.291,0.431-0.514l-0.093,0.817c0.458-2.868,2.308-2.549,3.538-4.106c-3.271-0.947-0.09-3.324-2.478-3.591
				c0,0,0.517-0.55,1.024-1.089c0.156-0.156,0.3-0.303,0.438-0.439c0.094,0.5,0.178,1.001,0.236,1.528
				c0.053-0.652,0.125-1.298,0.173-1.952c0.13-0.131,0.221-0.219,0.221-0.219l0.064,0.609c0.674-0.217,1.151-0.504,1.505-0.853
				c-0.289,1.503-0.567,3.007-0.771,4.511c-0.322,2.352-0.646,4.695-0.97,7.037l-0.167,2.752l-0.035-1.393l-0.667,4.492
				c-0.199,1.497-0.292,3-0.452,4.496c-0.303,3.004-0.603,5.995-0.902,8.984c-0.193,1.501-0.238,2.997-0.307,4.492l-0.213,4.486
				c-0.105,2.999-0.39,6-0.371,8.992l1.417,10.578l0.351,2.641c0.151,0.872,0.344,1.736,0.515,2.612l1.047,5.224
				c-1.196-12.848-1.548-26.115,0.253-38.797c0.953,4.262,2.039,8.633,2.687,13.092c0.188,1.116,0.307,2.244,0.507,3.361
				c0.206,1.111,0.405,2.236,0.615,3.362c0.38,2.261,0.694,4.534,0.948,6.817c-0.118-2.976-0.274-5.957-0.448-8.938
				c-0.127-1.489-0.098-2.993-0.086-4.492l0.007-4.506c0.35-2.285,0.694-4.578,1.168-6.665c0.558-2.098,1.327-3.997,2.276-5.531
				c-0.923,5.776-0.532,10.628,0.507,15.134c0.273-4.951,0.339-9.913,1.092-14.906c0.311-2.484,0.623-4.983,0.933-7.488
				c0.269-2.506,0.891-5,1.329-7.505c-1.052,5.472-0.672,11.201-0.764,16.868c-0.121,2.843,0.025,5.674-0.129,8.481
				c-0.146,2.817-0.519,5.614-1.239,8.412c-0.502-1.27-0.893-2.547-1.218-3.862c-0.566,17.896,1.545,35.522,6.488,52.248
				c0.312-1.314,0.429-2.625,0.395-3.956c-0.015-0.666-0.07-1.339-0.155-2.008c-0.067-0.68-0.109-1.377-0.211-2.065
				c-0.373-2.77-1.153-5.613-1.979-8.503c-0.387-1.452-0.904-2.889-1.173-4.378c-0.282-1.477-0.53-2.963-0.694-4.435
				c-0.336-2.944-0.344-5.854,0.333-8.598c3.859,18.384,8.129,37.43,15.876,55.369c2.109,4.389,4.119,8.829,6.402,13.099
				c2.516,4.155,5.06,8.271,7.722,12.245c2.978,3.791,6.019,7.489,9.159,10.995c3.289,3.418,6.945,6.478,10.535,9.397
				c-2.889-4.142-5.924-8.179-8.512-12.482c-8.02-11.919-14.902-24.55-20.545-37.74c-15.111-33.251-21.174-69.986-18.042-106.036
				c0.528-10.645,1.798-21.26,3.922-31.733c2.7-17.137,7.532-33.98,14.451-50.069c0.174,0.171,0.348,0.344,0.518,0.519
				c10.094-21.408,23.708-41.574,40.946-59.563C213.124,196.301,353.742,193.96,441.904,280.056z M33.986,531.362
				c-0.304-0.109-0.562-0.234-0.801-0.349c-0.03-0.056-0.064-0.106-0.097-0.163l-0.26-1.448c0.038-0.107,0.079-0.211,0.122-0.313
				c0.888,1.061,1.13,0.797,1.14,0.123C34.096,529.918,34.077,530.633,33.986,531.362z M34.05,528.338
				c-0.006-0.028-0.02-0.043-0.03-0.062c-0.065-0.489-0.142-0.99-0.167-1.343c0.035-0.079,0.072-0.156,0.115-0.233
				C34,527.25,34.023,527.795,34.05,528.338z M36.082,524.384c0.24,0.081,0.43,0.186,0.658,0.262l-0.589,0.904
				c-0.08-0.38-0.159-0.77-0.235-1.158C35.973,524.384,36.027,524.377,36.082,524.384z M26.572,530.919
				c-0.359-0.426-0.722-0.853-0.946-1.354c-0.077-0.848-0.116-1.625-0.105-2.297C25.876,528.488,26.227,529.698,26.572,530.919z
				 M12.25,436.4c-0.083,0.627-0.158,1.236-0.216,1.828c-0.243-0.384-0.441-0.794-0.524-1.25
				C11.746,436.711,11.991,436.519,12.25,436.4z M16.396,427.072c-0.144-0.621-0.304-1.255-0.471-1.887
				c0.16-0.391,0.319-0.776,0.543-1.189c0.553,0.195,0.998,0.213,1.377,0.109c-0.085,0.753-0.142,1.51-0.217,2.262
				C17.213,426.616,16.797,426.84,16.396,427.072z M74.399,350.805c-0.292,1.028-0.542,2.069-0.739,3.114
				c0.364,0.807,0.485,1.595-0.554,2.604c-0.987,4.798-2.222,9.092-4.031,11.977c-3.152,4.993-4.983,10.351-6.099,15.698
				c-0.072-2.432-0.205-4.827-0.311-7.132c3.041-9.192,6.602-18.113,10.361-26.704c-0.528,1.337,0.026,2.312,0.459,3.188
				C73.726,352.618,74.043,351.71,74.399,350.805c0.675-2.528,1.403-5.048,2.297-7.405
				C76.284,345.997,75.309,348.393,74.399,350.805z M23.64,381.666c-0.007,1.696-0.068,3.401-0.178,5.098
				c-0.401-0.86-0.736-2.193-0.97-4.586C22.892,381.933,23.271,381.77,23.64,381.666z"/>
			<path fill="#FFFFFF" d="M34.099,537.977l0.058,0.022c0.094,0.53,0.167,1.015,0.231,1.473l-0.019,0.193l-0.003-0.003
				C34.278,539.096,34.193,538.544,34.099,537.977z"/>
			<path fill="#FFFFFF" d="M18.747,492.392c0.022,0.344,0.046,0.704,0.073,1.052C18.755,493.021,18.74,492.683,18.747,492.392z"/>
			<path fill="#FFFFFF" d="M33.697,538.869c0.008-0.004,0.004-0.011,0.008-0.019c0.011,0.019,0.014,0.026,0.023,0.053
				c0,0.06,0,0.11-0.009,0.178C33.716,539.014,33.711,538.947,33.697,538.869z"/>
			<path fill="#FFFFFF" d="M157.523,628.983c2.736-1.244,6.42,3.54,9.721,3.593c-1.838-2.03-3.629-3.868-5.404-5.614
				c-9.079-6.52-17.707-13.749-25.781-21.639c-3.748-3.658-7.346-7.443-10.813-11.339
				C134.099,606.819,144.778,619.059,157.523,628.983z"/>
			<path fill="#FFFFFF" d="M185.355,648.66c-1.45-1.402-3.382-2.462-5.391-3.49C181.719,646.334,183.503,647.495,185.355,648.66z"/>
			<path fill="#FFFFFF" d="M94.526,576.109c-1.423-2.537-3.025-4.962-4.703-7.359c-1.764-2.336-3.216-4.854-4.729-7.329
				c-1.49-2.474-2.916-4.978-4.148-7.512c2.166,4.719,4.201,9.503,6.503,14.118c2.529,4.512,5.044,8.993,7.536,13.438
				c1.072,0.903,2.181,1.759,3.38,2.518c-0.55-1.374-1.204-2.67-1.862-3.962C95.896,578.679,95.239,577.385,94.526,576.109z"/>
			<path fill="#FFFFFF" d="M100.739,596.266c6.561,8.554,12.898,17.141,18.86,25.651
				C114.039,612.97,107.747,604.221,100.739,596.266z"/>
			<path fill="#FFFFFF" d="M103.265,613.508c1.267,1.643,2.519,3.312,3.815,4.936l4.122,4.644c2.78,3.089,5.556,6.167,8.33,9.245
				c-2.33-4.05-4.917-7.889-7.693-11.605c-0.701-0.914-1.411-1.839-2.116-2.757l-1.08-1.374l-1.013-1.44
				c-1.357-1.91-2.758-3.794-4.168-5.675c-2.504-2.652-5.136-5.204-7.563-7.932l-7.087-8.389c2.305,3.491,4.6,6.975,6.891,10.438
				C98.229,606.902,100.747,610.206,103.265,613.508z"/>
			<path fill="#FFFFFF" d="M51.596,608.91c-1.473-0.853-2.769-1.828-3.956-2.911c1.27,2.311,2.544,4.629,3.83,6.971
				C51.237,611.555,51.246,610.189,51.596,608.91z"/>
			<path fill="#FFFFFF" d="M84.18,651.713c-1.058-1.256-2.167-2.506-3.321-3.76c-1.145-1.259-2.363-2.478-3.494-3.862
				c-0.144-0.475-1.084-0.611-2.213-0.854C77.967,646.332,81.154,649.003,84.18,651.713z"/>
		</g>
		<g>
			<path fill="#FFFFFF" d="M376.463,298.809c-15.78,12.658-31.727,26.38-47.558,41.207c-4.909-6.226-12.117-8.674-21.361-8.674
				h-28.147v59.458c-20.799,23.416-40.873,48.981-59.545,76.81V267.401h87.692C338.833,267.401,361.765,278.189,376.463,298.809z"/>
			<path fill="#FFFFFF" d="M396.32,378.029v58.18c0,71.628-29.229,110.628-88.776,110.628h-28.147v168.181h-59.545V549.299
				c16.551-41.884,36.944-79.75,59.545-113.861v47.45h28.147c18.94,0,29.229-10.229,29.229-42.199v-67.133
				c0-4.414-0.198-8.408-0.578-12.019c15.785-17.877,31.919-34.34,47.992-49.421C392.299,329.374,396.32,351.455,396.32,378.029z"/>
		</g>
	</g>
</g>
</svg>
