<?xml version="1.0" encoding="utf-8"?>
<!-- Generator: Adobe Illustrator 16.0.0, SVG Export Plug-In . SVG Version: 6.00 Build 0)  -->
<!DOCTYPE svg PUBLIC "-//W3C//DTD SVG 1.1//EN" "http://www.w3.org/Graphics/SVG/1.1/DTD/svg11.dtd">
<svg version="1.1" id="图层_1" xmlns="http://www.w3.org/2000/svg" xmlns:xlink="http://www.w3.org/1999/xlink" x="0px" y="0px"
	 width="612px" height="792px" viewBox="0 0 612 792" enable-background="new 0 0 612 792" xml:space="preserve">
<g>
	<g>
		<g opacity="0.2">
			<path fill="#696B6D" d="M48.863,195.007c0.183-0.271-0.063-0.916-0.497-1.426C48.675,194.154,46.894,194.002,48.863,195.007z"/>
			<path fill="#696B6D" d="M30.079,163.63c0,0-0.061,0.119-0.12,0.24c-0.054,0.119-0.11,0.239-0.11,0.239
				C30.047,164.221,30.214,164.271,30.079,163.63z"/>
			<path fill="#696B6D" d="M29.724,164.392l0.125-0.282c-0.077-0.051-0.154-0.109-0.21-0.139l0.029-0.987
				c0.005,0.598-0.135,0.576-0.32,0.367l0.142-0.477l-0.396,0.145c-0.234-0.331-0.469-0.66-0.56-0.355
				c0.416,0.149,0.584,1.703,0.849,0.772l0.185,0.539C29.56,164.015,29.598,164.131,29.724,164.392z"/>
			<path fill="#696B6D" d="M26.374,162.071c0.085-0.111,0.144-0.209,0.21-0.309C26.458,161.739,26.364,161.779,26.374,162.071z"/>
			<path fill="#696B6D" d="M29.217,162.852l0.158-0.307C29.144,162.388,28.914,162.123,29.217,162.852z"/>
			<path fill="#696B6D" d="M29.638,162.031l-0.263,0.514C29.571,162.68,29.767,162.73,29.638,162.031z"/>
			<path fill="#696B6D" d="M30.185,171.129c0.145,0.003,0.227-0.095,0.282-0.238C30.333,170.839,30.221,170.892,30.185,171.129z"/>
			<path fill="#696B6D" d="M31.978,171.227l0.07-0.132C32.013,171.111,31.991,171.165,31.978,171.227z"/>
			<path fill="#696B6D" d="M31.779,168.98l-0.25,0.416c-0.144-0.099-0.377,0.067-0.601-0.211l0.056-0.602
				c0.059,0.056,0.113,0.107,0.19,0.181c-0.021-0.273-0.083-0.375-0.166-0.416l0.032-0.334c-0.106,0.036-0.166,0.148-0.197,0.306
				c-0.14-0.002-0.309,0.011-0.471-0.195c0,0,0.008-0.079,0.027-0.201c0.017-0.121,0.041-0.284,0.065-0.445
				c0.049-0.323,0.099-0.645,0.099-0.645c-0.17,0.054-0.249,0.281-0.276,0.608c-0.029,0.327-0.007,0.754,0.062,1.188
				c0.12,0.875,0.287,1.833,0.118,2.261c0.206,0.079,0.458,0.397,0.588,0.716c-0.008,0.044-0.019,0.088-0.031,0.126
				c0.03,0.012,0.063,0.037,0.096,0.057c0.054,0.223,0.03,0.421-0.138,0.513c0.313,0.488,0.492,0.65,0.598,0.662
				c-0.013,0.012-0.02,0.028-0.037,0.039c1.096,1.644,0.346-0.688,1.326,0.219c-0.323-0.22-0.506-0.924-0.451-1.208l-0.169,0.354
				c-0.116-0.168-0.213-0.383-0.256-0.595c-0.042-0.213-0.047-0.418-0.015-0.546l-0.388,0.745l-0.413-0.583
				c0.759,0.034-0.762-2.732,0.26-1.835l-0.087,0.146c0.117,0.298,0.384,0.515,0.63,0.651l-0.156,0.274
				c0.247,0.632,1.235,0.856,0.981,0.709c-0.169-0.307-0.405-0.579-0.535-0.847c0.169,0.06,0.258,0.057,0.153-0.002
				c-0.073-0.134-0.156-0.257-0.24-0.379c0.002-0.052,0.01-0.102,0.029-0.155l-0.063,0.107
				C31.891,169.682,31.648,169.339,31.779,168.98z"/>
			<path fill="#696B6D" d="M30.702,172.137c0.402,1.505-0.94-0.359-0.169,1.177C31.041,173.353,30.982,172.838,30.702,172.137z"/>
			<path fill="#696B6D" d="M34.403,176.725c-0.021,0.39,0.104,0.873,0.424,1.041c-0.692-1.076,0.291-0.721,0.135-1.429
				c-0.208-0.243-0.369-0.189-0.466-0.008c0.086-0.536,1.258-0.24,0.001-1.146C34.493,175.915,33.801,175.715,34.403,176.725z"/>
			<path fill="#696B6D" d="M43.825,189.25c0.002,0.007,0.003,0.015,0.008,0.021c0-0.005,0.002-0.005,0.005-0.007
				c0.134,0.138,0.281,0.312,0.535,0.496c0.162,0.047,0.258,0.055,0.313,0.04c0.073,0.067,0.15,0.129,0.23,0.168
				c0.013-0.623-0.171-0.977-0.438-1.361c0.044-0.006,0.091-0.006,0.151,0.001l-0.187-0.051c-0.327-0.432-0.797-0.88-1.27-1.721
				c0.178,0.586,0.264,1.04,0.364,1.469l-0.103-0.03C43.504,188.565,43.302,188.681,43.825,189.25z"/>
			<path fill="#696B6D" d="M43.436,188.275c-0.033-0.129-0.135-0.304-0.386-0.573c0.101,0.185,0.215,0.374,0.299,0.551
				L43.436,188.275z"/>
			<path fill="#696B6D" d="M35.558,180.338c0.026,0.102,0.058,0.202,0.071,0.3C35.646,180.503,35.61,180.413,35.558,180.338z"/>
			<path fill="#696B6D" d="M35.028,180.145c0.222-0.009,0.425,0.046,0.53,0.193c-0.163-0.554-0.45-1.146-0.847-1.253
				c-0.087-0.2-0.138-0.373-0.177-0.532c0.073,0.033,0.135,0.079,0.174,0.145c-0.05-0.258-0.14-0.518-0.26-0.725
				c-0.025-0.353-0.036-0.636-0.327-0.992l-0.349-0.122c-0.076-0.509,0.01-0.804-0.321-1.256l-0.686-0.276
				c0.172,0.045,0.35,0.266,0.499,0.554c0.163,0.282,0.312,0.625,0.388,0.937l-0.309-0.107c0.107,0.023,0.224,0.111,0.338,0.237
				c0.067,0.358,0.034,0.655-0.192,0.695l0.479-0.115c-0.149,0.401,0.143,1.025,0.39,1.582c-0.04,0.057-0.087,0.102-0.161,0.117
				l0.191-0.051c0.26,0.588,0.451,1.092-0.013,1.166c0.414,0.131,0.512-0.008,0.46-0.264c0.398,0.897,1.18,1.896,0.461,2.039
				C36.412,182.443,35.413,181.041,35.028,180.145z"/>
			<path fill="#696B6D" d="M46.003,191.454c0.271-0.497,0.695,0.47,1.207,0.724c-0.006-1.522-0.976-1.621-2.089-3.298
				C45.529,189.957,45.592,190.619,46.003,191.454z"/>
			<path fill="#696B6D" d="M48.935,191.847l0.581,0.6l-0.417-0.979c0.199,0.525-0.117,0.394-0.499,0.184
				c-0.404-0.255-0.877-0.616-0.835-0.215c0.191-0.009,0.432,0.232,0.648,0.451c0.228,0.207,0.427,0.393,0.504,0.31
				c0.045,0.051,0.087,0.103,0.131,0.145l-0.119-0.16C48.957,192.129,48.962,192.026,48.935,191.847z"/>
			<path fill="#696B6D" d="M49.099,191.467c-0.023-0.056-0.048-0.12-0.082-0.191L49.099,191.467z"/>
			<path fill="#696B6D" d="M41.397,187.886c0.373,1.404-0.002-0.133,1.004,0.862C42.382,188.209,41.735,188.22,41.397,187.886z"/>
			<path fill="#696B6D" d="M51.376,193.927c0.138,0.266,0.294,0.464,0.459,0.615L51.376,193.927z"/>
			<path fill="#696B6D" d="M26.327,160.94c-0.039-0.182-0.058-0.368-0.076-0.507c-0.018-0.139-0.029-0.23-0.029-0.23
				s0.002,0.089,0.007,0.225c0.007,0.133,0.005,0.314,0.025,0.489c0.033,0.355,0.065,0.709,0.065,0.709l0.146,0.044
				C26.464,161.669,26.396,161.306,26.327,160.94z"/>
			<path fill="#696B6D" d="M30.766,171.957c0.133-0.001,0.207-0.093,0.258-0.223C30.901,171.688,30.797,171.735,30.766,171.957z"/>
			<path fill="#696B6D" d="M32.419,172.014l0.059-0.121C32.446,171.912,32.432,171.958,32.419,172.014z"/>
			<path fill="#696B6D" d="M31.272,172.86c0.41,1.362-0.85-0.321-0.135,1.072C31.594,173.972,31.567,173.486,31.272,172.86z"/>
			<path fill="#696B6D" d="M33.777,175.497l0.062-0.24c-0.229-0.853,1.275-0.312,0.047-1.317
				C33.844,174.654,33.163,174.382,33.777,175.497z"/>
			<path fill="#696B6D" d="M40.496,183.142c-0.118-0.134-0.334-0.333-0.529-0.46C40.079,182.835,40.236,182.995,40.496,183.142z"/>
			<path fill="#696B6D" d="M34.708,178.698c0.017,0.094,0.042,0.186,0.049,0.281C34.777,178.854,34.749,178.769,34.708,178.698z"/>
			<path fill="#696B6D" d="M46.529,189.727l0.494,0.587l-0.39-1.111c0.563,1.424-1.228-0.603-1.173,0.114
				C45.902,189.304,46.615,190.691,46.529,189.727z"/>
			<path fill="#696B6D" d="M40.641,186.648c0.011-0.483-0.528-0.524-0.823-0.815c-0.173-0.355-0.31-0.674-0.331-0.893
				c0.339,0.234,0.764,0.604,1.073,0.754c0,0,0.038,0.282,0.075,0.567c0.02,0.142,0.04,0.284,0.054,0.392
				c0.014,0.107,0.03,0.173,0.03,0.173c0.576,0.232,1.779,1.324,1.956,0.84c0.172,0.01,0.115-0.133,0.008-0.323
				c0.001-0.002,0-0.004-0.001-0.006c0.161,0.144,0.267,0.256,0.368,0.365c-0.193-0.36-0.407-0.716-0.63-1.062
				c0.041-0.058,0.13-0.087,0.306-0.065l-0.429-0.121c-0.094-0.145-0.185-0.29-0.281-0.423c0.325-0.458,1.288,0.103,1.3,0.893
				c1.125,0.523-0.815-1.388,0.31-0.603c-0.727-1.07-0.804-0.89-0.985-0.72c-0.169,0.16-0.497,0.364-1.544-0.855
				c-0.149-0.476,0.057-0.455,0.32-0.294c0.095,0.163,0.156,0.351,0.148,0.554c0.383,0.213,0.366,0.058,0.265-0.162
				c0.061,0.045,0.128,0.088,0.203,0.131c-0.066-0.075-0.165-0.172-0.273-0.267c-0.174-0.326-0.402-0.667,0.117-0.246
				c-0.67-1.163-0.689-0.81-0.919-0.667c-0.093-0.04-0.214-0.049-0.385-0.023c-0.062-0.03-0.133-0.076-0.213-0.134
				c-0.039-0.434-0.62-0.808-0.661-1.068c0.073,0.007,0.165,0.042,0.269,0.112c-0.071-0.1-0.123-0.198-0.171-0.285
				c0.042-0.026,0.092-0.049,0.162-0.072c-0.489-0.535-0.811-0.734-1.157-0.88c-0.131-0.196-0.294-0.374-0.349-0.512l0.687,0.07
				c-0.316-0.476-0.438-0.51-0.525-0.438c-0.254-0.318-0.48-0.501-0.691-0.622c-0.091-0.204-0.239-0.42-0.421-0.589l0.46,0.056
				c-0.511-0.776-0.479-0.284-0.676-0.215c-0.048-0.03-0.095-0.06-0.147-0.076c0.034,0.031,0.057,0.052,0.087,0.08
				c-0.083-0.006-0.2-0.078-0.384-0.291c0.282-0.01-0.105-1.061-0.647-1.286c1.6,1.618-0.772,0.988-0.568,1.459
				c-0.084-0.076-0.152-0.265-0.261-0.449c0.033-0.354,0.525-0.332,0.401-0.885c-0.394-0.46-0.631,0.051-0.596,0.627
				c-0.003-0.004-0.005-0.005-0.008-0.01c0.069,0.783,0.354,1.003,0.727,1.165c0.375,0.161,0.804,0.286,1.146,0.917
				c-0.232,0.039-0.429,0.078-0.448,0.181c-0.01,0.008-0.016,0.021-0.024,0.031c-0.13-0.147-0.25-0.475-0.521-0.696
				c0.088,0.603,0.295,0.88,0.552,1.051c0.092,0.336,0.25,0.758-0.118,0.787c1.025,0.833,0.564-0.068,0.528-0.583
				c0.378,0.151,0.792,0.307,1.14,0.93c0.055,0.137,0.108,0.27,0.172,0.384c-0.195-0.1-0.335-0.151-0.438-0.172
				c-0.071-0.139-0.14-0.291-0.229-0.411c-0.549,0.459-0.238,0.936,0.175,1.426c0.015,0.161-0.033,0.285-0.237,0.308
				c0.545,0.384,0.716,0.39,0.742,0.237c0.114,0.139,0.212,0.28,0.276,0.429c0.003,0.093,0.03,0.187,0.071,0.281
				c0.01,0.118-0.001,0.238-0.054,0.364l-0.146-0.104l0.119,0.847c0.417-0.027,0.432-0.346,0.301-0.757
				c0.267,0.335,0.656,0.674,0.926,1.029c0.103,0.511,0.101,0.398,0.199,0.322c0.111,0.235,0.15,0.483,0.049,0.75l-0.158-0.11
				c0,0,0.037,0.232,0.075,0.466c0.047,0.226,0.095,0.451,0.095,0.451c0.697-0.083,0.323-0.789-0.034-1.576
				C40.144,186.261,40.306,186.267,40.641,186.648z M38.404,182.01c-0.006-0.006-0.01-0.008-0.017-0.012l0.014,0
				C38.403,182.002,38.404,182.007,38.404,182.01z"/>
			<path fill="#696B6D" d="M49.047,192.341l0.536,0.718c-0.058-0.357,0.542-0.338,0.68-0.395
				C49.853,192.737,49.42,192.684,49.047,192.341z"/>
			<path fill="#696B6D" d="M52.851,193.665c-0.177-0.064-0.359-0.128-0.526-0.19c-0.673-0.222-1.166-0.284-0.477,0.723
				c0.136,0.154,0.25,0.323,0.362,0.49c0.126-0.101,1.064-0.593,1.146-0.648c0.124-0.082,0.215-0.14,0.296-0.189
				c-0.083-0.008-0.174-0.02-0.277-0.042C53.216,193.769,53.033,193.723,52.851,193.665z"/>
			<path fill="#696B6D" d="M29.717,167.698c0.083,0.648-1.524-0.143-0.048,1.512C29.938,169.024,29.938,168.333,29.717,167.698z"/>
			<path fill="#696B6D" d="M20.499,130.294c0.119-0.075,0.208-0.143,0.306-0.211C20.697,130.018,20.595,130.018,20.499,130.294z"/>
			<path fill="#696B6D" d="M22.628,122.229l0.138-0.946C22.648,121.783,22.613,122.07,22.628,122.229z"/>
			<path fill="#696B6D" d="M21.632,123.09c-0.207,0.35-0.663,0.279-0.946,1.298C21.198,123.403,21.357,124.29,21.632,123.09z"/>
			<polygon fill="#696B6D" points="21.107,126.352 20.595,127.825 20.719,127.933 			"/>
			<path fill="#696B6D" d="M20.807,140.131c0.135,0.055,0.247-0.007,0.35-0.119C21.049,139.915,20.926,139.923,20.807,140.131z"/>
			<path fill="#696B6D" d="M20.93,141.258c-0.164,1.55-0.749-0.676-0.579,1.036C20.808,142.517,20.938,142.018,20.93,141.258z"/>
			<path fill="#696B6D" d="M22.52,150.677c-0.014,0.102-0.019,0.21-0.042,0.307C22.541,150.864,22.54,150.765,22.52,150.677z"/>
			<path fill="#696B6D" d="M22.093,150.305c0.21,0.072,0.38,0.198,0.426,0.373c0.046-0.575-0.01-1.232-0.341-1.477
				c-0.011-0.219,0.003-0.397,0.025-0.563c0.056,0.058,0.097,0.124,0.109,0.199c0.047-0.259,0.054-0.531,0.018-0.771
				c0.102-0.337,0.193-0.605,0.05-1.044l-0.282-0.239c0.111-0.501,0.298-0.744,0.15-1.288l-0.54-0.508
				c0.144,0.107,0.23,0.375,0.267,0.7c0.051,0.32,0.068,0.695,0.026,1.015l-0.249-0.214c0.091,0.064,0.168,0.188,0.23,0.347
				c-0.065,0.357-0.202,0.623-0.428,0.579l0.487,0.065c-0.281,0.319-0.232,1.006-0.202,1.617c-0.057,0.039-0.12,0.064-0.192,0.051
				l0.197,0.023c0.032,0.643,0.029,1.181-0.429,1.081c0.34,0.274,0.479,0.182,0.522-0.075c0.05,0.98,0.421,2.196-0.3,2.068
				C22.56,152.955,22.132,151.28,22.093,150.305z"/>
			<path fill="#696B6D" d="M32.606,169.86l-0.208-0.738C32.433,169.42,32.507,169.663,32.606,169.86z"/>
			<path fill="#696B6D" d="M21.409,125.496c-0.168,0.326-0.589,0.275-0.795,1.222C21.03,125.796,21.224,126.606,21.409,125.496z"/>
			<path fill="#696B6D" d="M20.86,129.222c0.029-0.184,0.078-0.364,0.111-0.499c0.033-0.137,0.055-0.226,0.055-0.226
				s-0.028,0.085-0.073,0.211c-0.041,0.127-0.108,0.292-0.151,0.466c-0.097,0.343-0.194,0.685-0.194,0.685l0.12,0.095
				C20.727,129.955,20.793,129.589,20.86,129.222z"/>
			<path fill="#696B6D" d="M21.054,141.115c0.123,0.046,0.225-0.011,0.319-0.114C21.275,140.914,21.162,140.92,21.054,141.115z"/>
			<path fill="#696B6D" d="M21.202,142.14c-0.106,1.421-0.679-0.608-0.51,0.955C21.102,143.296,21.252,142.832,21.202,142.14z"/>
			<path fill="#696B6D" d="M22.313,148.837c-0.018,0.095-0.028,0.192-0.056,0.281C22.323,149.008,22.327,148.919,22.313,148.837z"/>
			<path fill="#696B6D" d="M30.742,166.601c0.044-0.038,0.086-0.132,0.126-0.309l0.328,0.77l-0.047-1.274
				c0.06,0.825-0.211,0.57-0.523,0.198c-0.285-0.386-0.597-0.893-0.702-0.507c0.181,0.063,0.319,0.375,0.442,0.66
				c0.139,0.274,0.257,0.523,0.359,0.472c0.024,0.064,0.042,0.128,0.069,0.184L30.742,166.601z"/>
			<path fill="#696B6D" d="M31.813,167.538c-0.408-0.083-0.79-0.292-1.018-0.745l0.242,0.864
				C31.112,167.302,31.664,167.541,31.813,167.538z"/>
			<path fill="#696B6D" d="M34.307,169.739c-0.136-0.093-0.29-0.204-0.438-0.326c-0.143-0.125-0.289-0.25-0.423-0.368
				c-0.546-0.456-0.986-0.692-0.703,0.498c0.071,0.194,0.116,0.395,0.162,0.59c0.153-0.046,1.205-0.166,1.3-0.185
				c0.145-0.031,0.252-0.053,0.345-0.07C34.476,169.843,34.396,169.796,34.307,169.739z"/>
			<path fill="#696B6D" d="M24.186,115.447c-0.211,0.118-0.317,0.178-0.416,0.067c-0.051,0.14-0.105,0.278-0.155,0.417
				C23.736,116.075,23.892,116.048,24.186,115.447z"/>
			<path fill="#696B6D" d="M23.77,115.514c0.001-0.004,0.004-0.011,0.006-0.016c-0.003,0.004-0.007,0.011-0.01,0.015
				C23.768,115.514,23.769,115.514,23.77,115.514z"/>
			<path fill="#696B6D" d="M134.285,91.567c23.246,22.702,23.86,60.129,1.37,83.595c-13.782,14.381-33.039,20.172-51.236,17.285
				c-0.154,4.393-0.686,8.779-0.389,13.167c21.738,2.933,44.522-4.22,60.94-21.352c27.47-28.661,26.721-74.372-1.672-102.1
				C114.907,54.432,69.622,55.188,42.152,83.85c-4.454,4.647-8.164,9.744-11.136,15.138c0.034,0.033,0.067,0.068,0.101,0.101
				c-0.305,0.713-0.631,1.432-1.024,2.15c-0.065,0.149-0.067,0.324-0.042,0.495c-0.48,0.929-0.955,1.862-1.425,2.798
				c-0.225,0.323-0.449,0.658-0.673,1.018c0.016,0.097-0.001,0.227-0.02,0.372c-0.189,0.384-0.372,0.771-0.557,1.157
				c-0.088,0.069-0.176,0.136-0.261,0.209c-0.283,0.722-0.563,1.44-0.844,2.155c-0.236,0.521-0.477,1.04-0.705,1.562
				c-0.18,0.413-0.35,0.827-0.524,1.241c0.003,0,0.003-0.001,0.005-0.003c-0.004,0.007-0.007,0.014-0.012,0.021
				c-0.445,1.069-0.864,2.148-1.261,3.236c0.301-0.47,0.683-1.106,0.985-1.369c-0.082,0.239-0.167,0.482-0.254,0.727
				c-0.024,0.074-0.046,0.15-0.07,0.227c-0.071,0.087-0.115,0.174-0.09,0.29c-0.034,0.111-0.068,0.223-0.103,0.334
				c-0.205,0.416-0.405,0.814-0.597,0.988c0.122,0.076,0.225,0.189,0.316,0.323c0.015,0.25,0.029,0.498,0.035,0.747
				c-0.328,0.523-0.622,1.51-0.925,1.817c0.021,0.011,0.042,0.03,0.064,0.047c-0.051,0.093-0.105,0.208-0.167,0.364l0.466-0.032
				c0.043,0.068,0.083,0.138,0.122,0.212c-0.089,0.241-0.195,0.519-0.36,0.624c0.153-0.032,0.318-0.205,0.473-0.377
				c0.063,0.152,0.124,0.305,0.183,0.448c-0.037,0.342-0.075,0.684-0.122,1.025c-0.199,0.042-0.407,0.052-0.675,0.189
				c-0.113-0.112-0.239-0.106-0.395,0.254c-0.017-0.026-0.03-0.055-0.034-0.107l-0.025,0.164c0.019-0.016,0.036-0.028,0.053-0.041
				c-0.033,0.075-0.065,0.161-0.1,0.269l0.613-0.07c-0.088,0.244-0.167,0.662-0.364,0.803c0.087-0.022,0.172-0.098,0.258-0.189
				c-0.129,0.348-0.272,0.688-0.469,1.018c-0.08-0.076-0.142-0.15-0.199-0.218l0.022-0.153c-0.011,0.055-0.021,0.096-0.031,0.142
				c-0.188-0.23-0.296-0.353-0.704,0.096c0,0,0.049,0.362,0.098,0.725c0.021,0.181,0.059,0.364,0.084,0.499
				c0.028,0.137,0.044,0.227,0.044,0.227c0.251-0.277,0.489-0.555,0.745-0.815c0.137-0.099,0.292-0.225,0.422-0.26
				c-0.285,0.728-0.389,1.398-0.731,2.045c-0.072-0.063-0.127-0.124-0.179-0.18l0.176-0.922l-0.384,0.735
				c-0.056-0.029-0.122-0.022-0.202,0.031l-0.011-0.087l-0.062,0.142c-0.052,0.045-0.11,0.103-0.178,0.188l0.029,0.149l-0.509,1.151
				l0.734,0.439c-0.028,0.142-0.055,0.266-0.084,0.385l-0.021,0.045l-0.041-0.345c0,0-0.166,0.375-0.329,0.75
				c-0.155,0.378-0.289,0.761-0.29,0.761l0.143,0.078c-0.099,0.109-0.208,0.203-0.335,0.293c0.15,0.091,0.311,0.311,0.479,0.156
				l-0.095,0.749l0.313-0.141c-0.084,0.121-0.156,0.261-0.204,0.437c-0.026,0.099-0.048,0.193-0.071,0.291
				c-0.063,0.082-0.131,0.157-0.209,0.226c-0.197-0.31-0.417-0.602-0.224-1.111c-0.751,0.915-1.046,1.194-1.764,2.34
				c0.459,0.129,0.503,0.609,0.6,1.115c-0.093,0.15-0.188,0.315-0.298,0.515c0.676,0.165,0.378,1.141,0.843,1.732
				c0.27-0.448,0.436-1.327,0.707-1.765c0.012,0.826,0.119,1.55,0.311,2.246c-0.13,1.194-0.085,2.142,0.07,2.992
				c-0.034,0.057-0.069,0.106-0.106,0.147c0.162,0.149,0.283,0.537,0.291,0.883c-0.024,0.039-0.049,0.077-0.075,0.106
				c0.024,0.021,0.047,0.057,0.069,0.089c-0.028,0.225-0.122,0.402-0.311,0.427c0.118,0.569,0.225,0.786,0.32,0.833
				c-0.017,0.008-0.029,0.021-0.047,0.025c0.311,1.392,0.47,0.513,0.754,0.363c0.139,0.405,0.276,0.829,0.409,1.289
				c0.007,0.265,0.014,0.531,0.022,0.797c-0.038,0.142-0.042,0.352,0.003,0.691l0.018-0.026c0.018,0.516,0.04,1.034,0.067,1.548
				c-0.107,0.322-0.122,0.705,0.059,0.944c0.021,0.303,0.046,0.609,0.073,0.909c-0.088,0.415-0.036,0.681,0.091,0.888
				c0.042,0.366,0.093,0.728,0.147,1.09c-0.023,0.29,0.023,0.502,0.109,0.673c0.021,0.114,0.043,0.227,0.065,0.34
				c-0.03,0.297-0.083,0.58-0.373,0.493c0.359,0.629,0.491,0.61,0.56,0.389c0.033,0.143,0.063,0.285,0.098,0.427
				c-0.218,0.283-0.117,0.698,0.037,1.142c-0.043,0.155-0.134,0.253-0.332,0.202c0.37,0.557,0.528,0.626,0.606,0.491
				c0.058,0.174,0.099,0.339,0.105,0.501c-0.032,0.087-0.04,0.185-0.034,0.286c-0.034,0.113-0.087,0.223-0.182,0.321l-0.098-0.151
				l-0.192,0.833c0.397,0.128,0.525-0.164,0.551-0.595c0.128,0.411,0.369,0.867,0.493,1.295c-0.087,0.516-0.048,0.409,0.071,0.375
				c0.02,0.26-0.032,0.504-0.223,0.716l-0.107-0.16c0,0-0.049,0.23-0.099,0.462c-0.036,0.227-0.073,0.454-0.073,0.454
				c0.681,0.176,0.584-0.618,0.533-1.481c0.088-0.008,0.208,0.039,0.347,0.336c0.033,0.121,0.063,0.243,0.096,0.365
				c-0.001,0.008-0.003,0.027-0.003,0.027c0.005,0.004,0.01,0.009,0.015,0.016c0.123,0.461,0.24,0.926,0.345,1.394
				c-0.041-0.056-0.079-0.113-0.108-0.175c-0.155,1.446,0.047-0.125,0.629,1.169c0.141-0.412-0.227-0.639-0.478-0.94
				c0.055-0.124,0.111-0.259,0.166-0.406l0.001,0.066l0.155,0.054l-0.035-0.279c0.321,0.442,0.64,0.816,0.83,0.597
				c0.066,0.03,0.101,0.014,0.121-0.023c-0.007,0.133-0.014,0.289-0.021,0.445c-0.01,0.409,0.001,0.815,0.002,0.813l0.163,0.023
				c-0.054,0.138-0.122,0.266-0.208,0.396c0.124,0.023,0.276,0.101,0.39,0.069c0.018,0.055,0.035,0.109,0.06,0.173
				c0,0.008,0,0.015,0.001,0.023c0.002-0.004,0.003-0.001,0.007-0.004c0.076,0.177,0.151,0.394,0.321,0.658
				c0.082,0.062,0.144,0.101,0.195,0.125c-0.028,0.177-0.082,0.33-0.16,0.48c-0.294-0.217-0.605-0.41-0.607-0.956
				c-0.372,1.129-0.548,1.497-0.806,2.827c0.475-0.049,0.688,0.385,0.958,0.821c-0.032,0.174-0.062,0.362-0.093,0.588
				c0.689-0.093,0.76,0.926,1.405,1.31c0.128-0.729-0.242-2.164,0.3-2.29l0.052,0.256c0.034-0.979-0.714-0.932-1.003-1.414
				c0.057-0.156,0.143-0.269,0.277-0.297l0.042,0.286c0.012-0.144,0.005-0.266-0.01-0.374l0.011,0.04l0.358-0.379
				c-0.028,0.375-0.044,0.732-0.006,1.149c0.43-0.363,0.479,0.694,0.865,1.115c0.54-1.42-0.329-1.866-0.768-3.837
				c0,0.33-0.016,0.616-0.036,0.88c-0.13-0.183-0.263-0.367-0.381-0.564c0.021-0.221,0-0.427-0.044-0.637l0.088-0.087
				c-0.008-0.014-0.018-0.027-0.026-0.041c0.015,0.007,0.026,0.009,0.042,0.019l-0.06-0.047c-0.046-0.071-0.092-0.142-0.141-0.209
				c-0.063-0.202-0.141-0.417-0.219-0.66c0-0.007,0-0.014,0.001-0.022c0.481-0.015,0.574-0.328,0.553-0.811
				c0.251-0.374,0.384-0.905,0.474,0.218c0.05,0.036,0.092,0.063,0.128,0.087c-0.241,0.313-0.141,0.742-0.104,1.055l-0.312,0.104
				l0.181,0.295c-0.1,0.025-0.263,0.003-0.524-0.095c0.282,0.462,0.476,0.424,0.624,0.256l0.112,0.185l0.22-0.72
				c0.07-0.055,0.133,0.062,0.204,0.595c0.847,0.589-0.157-0.649,0.332-0.638c-0.38-0.102-0.676-0.374-0.58-0.96
				c0.142,0.052,0.118-0.071,0.059-0.238c0.004-0.011,0.002-0.021,0.007-0.031l-0.015,0.011c-0.081-0.258-0.202-0.61,0.064-0.595
				c-0.461-0.141-0.79-0.524-0.476-1.366c-0.665,0.359-0.399,1.129-0.426,1.533c-0.098-0.622-0.363-1.421-0.531-2.171
				c0.014-0.191,0.027-0.371,0.042-0.582c-0.046,0.049-0.082,0.115-0.122,0.172c-0.059-0.37-0.091-0.708-0.021-0.995
				c0.714,0.272,1.26,0.66,1.697,1.155c0.24,0.271,0.448,0.573,0.645,0.904c0.218,0.32,0.419,0.668,0.618,1.04
				c0.397,0.741,0.785,1.578,1.258,2.465c0.221,0.45,0.538,0.88,0.855,1.329c0.325,0.444,0.686,0.894,1.088,1.341
				c0.8,1.013,0.04-1.033,0.48-1.284c0.312,0.06,0.619,0.181,0.923,0.337l0.605,1.036c0.123,0.201,0.242,0.404,0.37,0.602
				l0.418,0.576c-0.055-0.111-0.11-0.218-0.166-0.33c-0.24-0.361-0.421-0.744-0.642-1.091c-0.166-0.268-0.342-0.52-0.525-0.76
				c0.288,0.154,0.574,0.336,0.856,0.533c0.295,0.207,0.6,0.425,0.9,0.636c0.319,0.2,0.637,0.388,0.952,0.544
				c-0.152-0.371-0.335-0.726-0.468-1.104l-0.418-1.125c-0.285-0.746-0.578-1.484-0.882-2.218l-1.596-4.485
				c-0.937-3.028-1.881-6.067-2.458-9.209c0.045,0.6,0.083,1.201,0.108,1.801c0.054,0.594,0.12,1.186,0.158,1.781
				c0.089,1.187,0.071,2.392,0.124,3.571c-0.924-4.167-1.344-8.431-1.268-12.704c-0.349-3.414-0.391-6.877-0.054-10.294
				c0.039-0.034,0.077-0.075,0.114-0.137l-0.025,0.214c0.122-0.755,0.609-0.67,0.934-1.08c-0.863-0.248-0.025-0.877-0.653-0.948
				c0,0,0.135-0.144,0.27-0.288c0.04-0.04,0.078-0.08,0.114-0.115c0.025,0.131,0.047,0.267,0.062,0.403
				c0.013-0.171,0.032-0.342,0.046-0.514c0.033-0.033,0.058-0.059,0.058-0.059l0.017,0.161c0.178-0.058,0.304-0.133,0.398-0.225
				c-0.077,0.396-0.151,0.792-0.205,1.19c-0.085,0.62-0.17,1.239-0.255,1.855l-0.045,0.727l-0.008-0.367l-0.175,1.183
				c-0.052,0.396-0.077,0.791-0.119,1.187c-0.079,0.792-0.158,1.582-0.238,2.368c-0.052,0.395-0.063,0.79-0.081,1.185l-0.056,1.185
				c-0.028,0.788-0.103,1.58-0.098,2.368l0.373,2.79l0.093,0.695c0.04,0.229,0.091,0.458,0.135,0.69l0.277,1.376
				c-0.315-3.386-0.409-6.884,0.067-10.23c0.252,1.124,0.536,2.276,0.708,3.453c0.05,0.294,0.081,0.591,0.134,0.886
				c0.055,0.295,0.108,0.592,0.163,0.889c0.1,0.592,0.184,1.193,0.25,1.794c-0.031-0.783-0.072-1.57-0.118-2.356
				c-0.034-0.392-0.027-0.789-0.024-1.184l0.003-1.188c0.092-0.604,0.183-1.206,0.307-1.758c0.146-0.552,0.35-1.053,0.6-1.458
				c-0.243,1.521-0.139,2.802,0.134,3.989c0.072-1.305,0.088-2.614,0.288-3.931c0.081-0.654,0.163-1.313,0.244-1.974
				c0.072-0.66,0.236-1.318,0.352-1.979c-0.277,1.442-0.177,2.953-0.201,4.448c-0.032,0.75,0.006,1.496-0.035,2.235
				c-0.039,0.743-0.136,1.481-0.327,2.218c-0.132-0.334-0.235-0.669-0.321-1.018c-0.148,4.719,0.407,9.369,1.712,13.777
				c0.081-0.344,0.112-0.693,0.103-1.044c-0.004-0.174-0.019-0.352-0.041-0.528c-0.018-0.179-0.03-0.363-0.057-0.545
				c-0.097-0.731-0.302-1.481-0.521-2.243c-0.103-0.382-0.238-0.762-0.31-1.152c-0.074-0.391-0.139-0.783-0.183-1.171
				c-0.087-0.777-0.091-1.545,0.089-2.267c1.016,4.847,2.143,9.869,4.185,14.599c0.556,1.159,1.085,2.327,1.688,3.454
				c0.663,1.096,1.334,2.18,2.036,3.229c0.785,1.003,1.589,1.973,2.416,2.898c0.866,0.901,1.83,1.708,2.777,2.476
				c-0.762-1.09-1.563-2.155-2.245-3.289c-2.114-3.142-3.93-6.474-5.418-9.951c-3.983-8.768-5.582-18.453-4.756-27.958
				c0.138-2.807,0.475-5.606,1.034-8.367c0.712-4.521,1.986-8.961,3.81-13.204c0.045,0.046,0.092,0.091,0.137,0.138
				c2.661-5.645,6.251-10.963,10.796-15.706C73.961,69.481,111.038,68.865,134.285,91.567z M26.727,157.829
				c-0.081-0.027-0.148-0.061-0.211-0.091c-0.01-0.014-0.017-0.028-0.026-0.042l-0.068-0.382c0.01-0.028,0.021-0.056,0.032-0.083
				c0.234,0.28,0.298,0.211,0.302,0.033C26.757,157.449,26.751,157.638,26.727,157.829z M26.744,157.032
				c-0.002-0.007-0.005-0.011-0.009-0.017c-0.016-0.128-0.036-0.261-0.044-0.353c0.01-0.022,0.02-0.042,0.029-0.06
				C26.732,156.746,26.738,156.891,26.744,157.032z M27.28,155.989c0.062,0.021,0.114,0.048,0.173,0.069l-0.155,0.239
				c-0.021-0.102-0.042-0.204-0.063-0.307C27.25,155.99,27.265,155.986,27.28,155.989z M24.772,157.712
				c-0.094-0.111-0.191-0.225-0.25-0.356c-0.019-0.224-0.03-0.427-0.027-0.605C24.589,157.072,24.681,157.391,24.772,157.712z
				 M20.996,132.791c-0.022,0.165-0.042,0.326-0.058,0.483c-0.064-0.102-0.116-0.209-0.138-0.331
				C20.862,132.873,20.928,132.821,20.996,132.791z M22.088,130.333c-0.037-0.165-0.08-0.332-0.123-0.499
				c0.041-0.102,0.083-0.204,0.143-0.312c0.146,0.052,0.263,0.056,0.363,0.028c-0.022,0.199-0.037,0.397-0.056,0.597
				C22.304,130.209,22.194,130.27,22.088,130.333z M37.383,110.222c-0.076,0.27-0.142,0.546-0.195,0.819
				c0.097,0.214,0.128,0.422-0.145,0.688c-0.26,1.266-0.586,2.396-1.063,3.158c-0.831,1.317-1.314,2.729-1.608,4.139
				c-0.019-0.64-0.054-1.273-0.082-1.879c0.802-2.424,1.74-4.777,2.731-7.041c-0.138,0.352,0.007,0.609,0.122,0.84
				C37.205,110.7,37.29,110.46,37.383,110.222c0.178-0.666,0.371-1.331,0.607-1.953C37.879,108.953,37.623,109.585,37.383,110.222z
				 M23.999,118.359c-0.003,0.449-0.019,0.896-0.046,1.344c-0.107-0.227-0.196-0.579-0.257-1.207
				C23.801,118.429,23.902,118.386,23.999,118.359z"/>
			<path fill="#696B6D" d="M26.757,159.577l0.015,0.002c0.024,0.141,0.045,0.267,0.061,0.389l-0.006,0.051l0-0.001
				C26.804,159.869,26.783,159.723,26.757,159.577z"/>
			<path fill="#696B6D" d="M22.708,147.554c0.006,0.092,0.012,0.186,0.02,0.278C22.712,147.72,22.706,147.63,22.708,147.554z"/>
			<path fill="#696B6D" d="M26.652,159.81c0.001-0.001,0-0.004,0-0.006c0.003,0.005,0.005,0.008,0.008,0.014
				c-0.001,0.016-0.001,0.029-0.002,0.047C26.655,159.846,26.655,159.832,26.652,159.81z"/>
			<path fill="#696B6D" d="M59.301,183.569c0.721-0.326,1.692,0.934,2.563,0.948c-0.484-0.535-0.956-1.02-1.424-1.481
				c-2.395-1.719-4.669-3.624-6.799-5.704c-0.987-0.964-1.937-1.962-2.851-2.99C53.124,177.726,55.94,180.952,59.301,183.569z"/>
			<path fill="#696B6D" d="M66.639,188.757c-0.382-0.37-0.891-0.65-1.421-0.922C65.68,188.144,66.15,188.452,66.639,188.757z"/>
			<path fill="#696B6D" d="M42.69,169.628c-0.375-0.668-0.798-1.309-1.242-1.939c-0.464-0.618-0.848-1.283-1.246-1.933
				c-0.393-0.653-0.771-1.312-1.094-1.982c0.571,1.245,1.108,2.506,1.714,3.723c0.668,1.19,1.33,2.371,1.987,3.543
				c0.282,0.24,0.576,0.463,0.891,0.664c-0.144-0.362-0.317-0.704-0.49-1.046C43.052,170.306,42.878,169.964,42.69,169.628z"/>
			<path fill="#696B6D" d="M44.328,174.943c1.731,2.256,3.4,4.519,4.973,6.764C47.834,179.347,46.177,177.041,44.328,174.943z"/>
			<path fill="#696B6D" d="M44.993,179.489c0.335,0.432,0.666,0.871,1.007,1.301l1.086,1.224c0.733,0.814,1.466,1.626,2.197,2.438
				c-0.614-1.066-1.297-2.082-2.029-3.06c-0.186-0.242-0.372-0.484-0.558-0.728l-0.286-0.362l-0.267-0.379
				c-0.358-0.504-0.726-1.001-1.099-1.496c-0.661-0.699-1.354-1.372-1.995-2.091l-1.868-2.212c0.608,0.919,1.212,1.837,1.818,2.751
				C43.666,177.749,44.33,178.618,44.993,179.489z"/>
			<path fill="#696B6D" d="M31.37,178.276c-0.386-0.225-0.73-0.48-1.042-0.767c0.335,0.609,0.671,1.221,1.009,1.837
				C31.275,178.973,31.279,178.614,31.37,178.276z"/>
			<path fill="#696B6D" d="M39.963,189.563c-0.28-0.331-0.572-0.663-0.875-0.992c-0.303-0.332-0.624-0.653-0.922-1.019
				c-0.039-0.125-0.287-0.16-0.584-0.224C38.324,188.144,39.164,188.849,39.963,189.563z"/>
		</g>
		<g>
			<path fill="#696B6D" d="M41.924,194.412c0.184-0.271-0.063-0.915-0.497-1.427C41.737,193.558,39.955,193.407,41.924,194.412z"/>
			<path fill="#696B6D" d="M23.14,163.035c0,0-0.059,0.118-0.119,0.24c-0.054,0.118-0.109,0.238-0.109,0.238
				C23.107,163.626,23.276,163.677,23.14,163.035z"/>
			<path fill="#696B6D" d="M22.785,163.796l0.127-0.283c-0.078-0.049-0.155-0.108-0.211-0.137l0.029-0.987
				c0.006,0.6-0.135,0.575-0.32,0.366l0.142-0.478l-0.396,0.145c-0.233-0.33-0.469-0.659-0.56-0.354
				c0.417,0.148,0.584,1.702,0.85,0.771l0.185,0.539C22.62,163.42,22.659,163.536,22.785,163.796z"/>
			<path fill="#696B6D" d="M19.435,161.476c0.084-0.111,0.143-0.21,0.21-0.309C19.52,161.145,19.426,161.184,19.435,161.476z"/>
			<path fill="#696B6D" d="M22.279,162.257l0.157-0.308C22.204,161.792,21.974,161.527,22.279,162.257z"/>
			<path fill="#696B6D" d="M22.699,161.436l-0.263,0.513C22.631,162.084,22.829,162.135,22.699,161.436z"/>
			<path fill="#696B6D" d="M23.246,170.534c0.145,0.004,0.228-0.095,0.283-0.236C23.394,170.245,23.281,170.297,23.246,170.534z"/>
			<path fill="#696B6D" d="M25.039,170.631l0.069-0.13C25.074,170.516,25.054,170.57,25.039,170.631z"/>
			<path fill="#696B6D" d="M24.84,168.385l-0.25,0.417c-0.144-0.1-0.377,0.066-0.602-0.212l0.056-0.602
				c0.058,0.057,0.113,0.108,0.19,0.181c-0.021-0.273-0.083-0.375-0.165-0.416l0.031-0.335c-0.106,0.036-0.166,0.149-0.196,0.307
				c-0.141-0.002-0.309,0.011-0.473-0.194c0,0,0.008-0.08,0.029-0.203c0.017-0.122,0.042-0.283,0.065-0.445
				c0.05-0.322,0.1-0.644,0.1-0.644c-0.171,0.054-0.25,0.28-0.277,0.608c-0.029,0.327-0.007,0.754,0.063,1.188
				c0.121,0.875,0.288,1.835,0.12,2.262c0.204,0.078,0.457,0.397,0.587,0.715c-0.008,0.045-0.019,0.091-0.032,0.127
				c0.031,0.011,0.065,0.036,0.096,0.057c0.055,0.221,0.031,0.419-0.137,0.512c0.313,0.488,0.492,0.649,0.598,0.661
				c-0.014,0.013-0.019,0.029-0.035,0.039c1.094,1.645,0.345-0.688,1.325,0.219c-0.322-0.22-0.506-0.923-0.45-1.208l-0.17,0.353
				c-0.116-0.167-0.213-0.382-0.256-0.594c-0.041-0.214-0.047-0.418-0.015-0.547l-0.388,0.745l-0.412-0.583
				c0.758,0.034-0.762-2.732,0.26-1.835l-0.087,0.146c0.117,0.301,0.385,0.515,0.631,0.651l-0.157,0.275
				c0.248,0.631,1.235,0.855,0.981,0.71c-0.169-0.307-0.405-0.579-0.534-0.847c0.168,0.059,0.258,0.056,0.153-0.002
				c-0.074-0.135-0.158-0.258-0.241-0.379c0.003-0.053,0.012-0.103,0.029-0.155l-0.063,0.107
				C24.951,169.087,24.708,168.745,24.84,168.385z"/>
			<path fill="#696B6D" d="M23.763,171.54c0.402,1.507-0.939-0.356-0.168,1.179C24.102,172.758,24.043,172.245,23.763,171.54z"/>
			<path fill="#696B6D" d="M27.464,176.127c-0.021,0.391,0.104,0.876,0.424,1.043c-0.693-1.075,0.291-0.722,0.135-1.429
				c-0.209-0.244-0.37-0.19-0.466-0.007c0.086-0.537,1.258-0.241,0.001-1.146C27.554,175.32,26.862,175.12,27.464,176.127z"/>
			<path fill="#696B6D" d="M36.886,188.655c0.002,0.007,0.004,0.014,0.007,0.02c0.001-0.003,0.002-0.003,0.005-0.004
				c0.134,0.137,0.282,0.311,0.536,0.496c0.163,0.049,0.259,0.055,0.314,0.039c0.073,0.069,0.149,0.129,0.23,0.169
				c0.013-0.623-0.17-0.977-0.438-1.361c0.043-0.006,0.091-0.006,0.152,0.001l-0.188-0.05c-0.326-0.432-0.796-0.881-1.27-1.721
				c0.178,0.587,0.264,1.04,0.364,1.469l-0.102-0.03C36.565,187.97,36.363,188.086,36.886,188.655z"/>
			<path fill="#696B6D" d="M36.497,187.681c-0.032-0.129-0.135-0.304-0.386-0.573c0.1,0.184,0.214,0.373,0.299,0.551L36.497,187.681
				z"/>
			<path fill="#696B6D" d="M28.619,179.743c0.025,0.101,0.058,0.202,0.071,0.301C28.707,179.909,28.671,179.818,28.619,179.743z"/>
			<path fill="#696B6D" d="M28.089,179.55c0.223-0.01,0.426,0.045,0.53,0.193c-0.163-0.553-0.451-1.146-0.847-1.253
				c-0.087-0.199-0.139-0.372-0.177-0.532c0.073,0.032,0.135,0.079,0.172,0.146c-0.049-0.259-0.139-0.518-0.258-0.725
				c-0.025-0.353-0.038-0.636-0.328-0.992l-0.348-0.122c-0.076-0.509,0.01-0.803-0.321-1.256l-0.684-0.277
				c0.169,0.046,0.349,0.267,0.498,0.554c0.163,0.282,0.313,0.624,0.389,0.937l-0.31-0.107c0.108,0.023,0.224,0.11,0.338,0.235
				c0.067,0.36,0.034,0.654-0.193,0.696l0.479-0.115c-0.149,0.402,0.143,1.025,0.392,1.582c-0.04,0.058-0.089,0.103-0.163,0.117
				l0.191-0.05c0.26,0.587,0.451,1.092-0.012,1.165c0.415,0.131,0.511-0.008,0.459-0.264c0.399,0.897,1.181,1.896,0.461,2.039
				C29.474,181.85,28.474,180.444,28.089,179.55z"/>
			<path fill="#696B6D" d="M39.063,190.859c0.273-0.498,0.697,0.47,1.207,0.724c-0.005-1.522-0.975-1.621-2.09-3.298
				C38.591,189.36,38.652,190.024,39.063,190.859z"/>
			<path fill="#696B6D" d="M41.997,191.252l0.58,0.601l-0.418-0.98c0.201,0.525-0.115,0.394-0.498,0.184
				c-0.404-0.255-0.877-0.616-0.835-0.217c0.191-0.007,0.432,0.234,0.647,0.453c0.228,0.206,0.427,0.394,0.505,0.309
				c0.044,0.052,0.085,0.107,0.13,0.147l-0.12-0.161C42.018,191.535,42.024,191.432,41.997,191.252z"/>
			<path fill="#696B6D" d="M42.159,190.873c-0.022-0.056-0.047-0.12-0.082-0.191L42.159,190.873z"/>
			<path fill="#696B6D" d="M34.458,187.291c0.373,1.405,0-0.132,1.005,0.863C35.443,187.615,34.797,187.625,34.458,187.291z"/>
			<path fill="#696B6D" d="M44.437,193.332c0.138,0.267,0.294,0.465,0.459,0.615L44.437,193.332z"/>
			<path fill="#696B6D" d="M19.388,160.345c-0.039-0.183-0.059-0.368-0.076-0.507c-0.019-0.139-0.03-0.23-0.03-0.23
				s0.002,0.089,0.007,0.224c0.007,0.132,0.005,0.314,0.026,0.489c0.032,0.354,0.065,0.709,0.065,0.709l0.146,0.044
				C19.526,161.074,19.457,160.711,19.388,160.345z"/>
			<path fill="#696B6D" d="M23.828,171.362c0.132-0.002,0.206-0.093,0.256-0.223C23.962,171.093,23.858,171.141,23.828,171.362z"/>
			<path fill="#696B6D" d="M25.481,171.419l0.058-0.12C25.508,171.316,25.492,171.363,25.481,171.419z"/>
			<path fill="#696B6D" d="M24.333,172.265c0.41,1.362-0.851-0.321-0.135,1.073C24.655,173.378,24.628,172.891,24.333,172.265z"/>
			<path fill="#696B6D" d="M26.838,174.903l0.061-0.241c-0.228-0.852,1.276-0.312,0.047-1.317
				C26.905,174.059,26.224,173.787,26.838,174.903z"/>
			<path fill="#696B6D" d="M33.555,182.546c-0.116-0.133-0.333-0.333-0.527-0.46C33.14,182.241,33.296,182.4,33.555,182.546z"/>
			<path fill="#696B6D" d="M27.768,178.104c0.018,0.092,0.043,0.187,0.049,0.282C27.838,178.259,27.811,178.174,27.768,178.104z"/>
			<path fill="#696B6D" d="M39.59,189.133l0.494,0.585l-0.391-1.111c0.564,1.425-1.229-0.602-1.172,0.114
				C38.963,188.708,39.676,190.096,39.59,189.133z"/>
			<path fill="#696B6D" d="M33.702,186.054c0.011-0.483-0.527-0.524-0.822-0.816c-0.173-0.354-0.311-0.674-0.332-0.893
				c0.338,0.235,0.764,0.603,1.074,0.753c0,0,0.037,0.285,0.074,0.567c0.02,0.143,0.04,0.285,0.054,0.393
				c0.013,0.107,0.029,0.173,0.029,0.173c0.576,0.232,1.779,1.323,1.955,0.841c0.172,0.01,0.116-0.133,0.01-0.324
				c0-0.002-0.001-0.004-0.001-0.006c0.161,0.144,0.267,0.257,0.367,0.366c-0.193-0.36-0.408-0.716-0.629-1.063
				c0.04-0.056,0.13-0.085,0.306-0.064l-0.43-0.122c-0.094-0.144-0.185-0.289-0.281-0.421c0.327-0.459,1.289,0.102,1.3,0.892
				c1.125,0.523-0.815-1.389,0.311-0.604c-0.727-1.069-0.804-0.89-0.986-0.72c-0.169,0.162-0.498,0.365-1.544-0.854
				c-0.15-0.477,0.057-0.455,0.319-0.295c0.095,0.163,0.157,0.351,0.149,0.554c0.383,0.213,0.366,0.058,0.265-0.162
				c0.061,0.045,0.128,0.088,0.204,0.132c-0.067-0.075-0.164-0.172-0.273-0.268c-0.174-0.325-0.403-0.667,0.117-0.245
				c-0.67-1.164-0.689-0.81-0.92-0.669c-0.092-0.039-0.214-0.049-0.384-0.022c-0.061-0.03-0.132-0.076-0.212-0.134
				c-0.04-0.434-0.619-0.807-0.66-1.068c0.072,0.007,0.163,0.042,0.269,0.113c-0.072-0.101-0.124-0.198-0.172-0.286
				c0.041-0.024,0.091-0.048,0.162-0.071c-0.489-0.535-0.81-0.735-1.157-0.88c-0.13-0.196-0.295-0.375-0.349-0.513l0.686,0.072
				c-0.314-0.476-0.438-0.51-0.525-0.438c-0.254-0.317-0.479-0.5-0.69-0.622c-0.092-0.204-0.24-0.419-0.42-0.589l0.46,0.056
				c-0.513-0.777-0.48-0.284-0.677-0.215c-0.047-0.029-0.095-0.06-0.146-0.076c0.033,0.031,0.057,0.052,0.085,0.079
				c-0.082-0.006-0.198-0.078-0.383-0.29c0.283-0.009-0.105-1.062-0.646-1.287c1.6,1.618-0.772,0.988-0.568,1.46
				c-0.084-0.079-0.152-0.265-0.261-0.449c0.034-0.354,0.525-0.332,0.401-0.885c-0.394-0.459-0.632,0.05-0.595,0.626
				c-0.005-0.003-0.007-0.006-0.01-0.01c0.069,0.784,0.354,1.004,0.727,1.166c0.374,0.16,0.804,0.283,1.145,0.915
				c-0.231,0.04-0.428,0.08-0.447,0.182c-0.01,0.008-0.016,0.022-0.024,0.032c-0.13-0.147-0.25-0.475-0.521-0.696
				c0.088,0.604,0.295,0.879,0.553,1.051c0.091,0.336,0.25,0.757-0.118,0.786c1.026,0.833,0.564-0.068,0.528-0.583
				c0.378,0.151,0.792,0.31,1.139,0.93c0.054,0.138,0.107,0.27,0.172,0.384c-0.196-0.1-0.335-0.152-0.438-0.173
				c-0.072-0.141-0.141-0.291-0.229-0.41c-0.55,0.458-0.237,0.935,0.176,1.425c0.015,0.159-0.034,0.284-0.238,0.308
				c0.544,0.384,0.716,0.39,0.742,0.24c0.115,0.137,0.213,0.277,0.276,0.426c0.003,0.093,0.03,0.187,0.071,0.278
				c0.01,0.12,0,0.24-0.054,0.366l-0.145-0.104l0.121,0.847c0.416-0.025,0.431-0.345,0.3-0.757c0.267,0.336,0.656,0.675,0.926,1.03
				c0.102,0.511,0.1,0.398,0.199,0.322c0.112,0.235,0.151,0.483,0.048,0.752l-0.157-0.112c0,0,0.037,0.232,0.074,0.466
				c0.047,0.226,0.094,0.451,0.094,0.451c0.699-0.083,0.324-0.789-0.033-1.577C33.205,185.665,33.367,185.671,33.702,186.054z
				 M31.465,181.417c-0.006-0.007-0.01-0.009-0.017-0.013l0.013-0.001C31.463,181.407,31.464,181.413,31.465,181.417z"/>
			<path fill="#696B6D" d="M42.108,191.748l0.535,0.717c-0.058-0.358,0.543-0.339,0.681-0.395
				C42.914,192.142,42.482,192.086,42.108,191.748z"/>
			<path fill="#696B6D" d="M45.913,193.069c-0.179-0.065-0.361-0.128-0.526-0.19c-0.674-0.224-1.167-0.284-0.477,0.722
				c0.135,0.156,0.25,0.325,0.362,0.491c0.127-0.1,1.065-0.593,1.147-0.648c0.122-0.08,0.214-0.142,0.296-0.188
				c-0.083-0.009-0.175-0.021-0.276-0.044C46.276,193.173,46.093,193.128,45.913,193.069z"/>
			<path fill="#696B6D" d="M22.778,167.103c0.083,0.65-1.524-0.143-0.048,1.512C22.999,168.43,22.999,167.738,22.778,167.103z"/>
			<path fill="#696B6D" d="M13.56,129.699c0.119-0.073,0.208-0.142,0.307-0.211C13.758,129.422,13.656,129.423,13.56,129.699z"/>
			<path fill="#696B6D" d="M15.689,121.634l0.138-0.946C15.708,121.188,15.674,121.475,15.689,121.634z"/>
			<path fill="#696B6D" d="M14.693,122.495c-0.208,0.35-0.663,0.28-0.945,1.298C14.259,122.808,14.419,123.696,14.693,122.495z"/>
			<polygon fill="#696B6D" points="14.167,125.757 13.654,127.231 13.78,127.338 			"/>
			<path fill="#696B6D" d="M13.869,139.536c0.135,0.054,0.246-0.006,0.349-0.119C14.111,139.32,13.987,139.328,13.869,139.536z"/>
			<path fill="#696B6D" d="M13.99,140.664c-0.165,1.552-0.749-0.676-0.579,1.036C13.868,141.923,14,141.42,13.99,140.664z"/>
			<path fill="#696B6D" d="M15.58,150.082c-0.013,0.103-0.019,0.21-0.042,0.307C15.602,150.269,15.602,150.17,15.58,150.082z"/>
			<path fill="#696B6D" d="M15.156,149.71c0.209,0.073,0.378,0.199,0.424,0.372c0.046-0.574-0.01-1.232-0.342-1.476
				c-0.009-0.22,0.004-0.397,0.026-0.563c0.057,0.058,0.097,0.124,0.11,0.198c0.045-0.258,0.054-0.53,0.016-0.77
				c0.104-0.338,0.194-0.606,0.05-1.044l-0.281-0.24c0.111-0.501,0.297-0.746,0.151-1.288l-0.54-0.508
				c0.143,0.106,0.23,0.375,0.266,0.7c0.051,0.32,0.068,0.694,0.026,1.014l-0.249-0.214c0.092,0.063,0.168,0.186,0.23,0.346
				c-0.064,0.357-0.202,0.622-0.427,0.577l0.487,0.067c-0.281,0.319-0.233,1.006-0.202,1.617c-0.058,0.04-0.12,0.064-0.193,0.052
				l0.198,0.021c0.031,0.645,0.028,1.184-0.43,1.083c0.34,0.273,0.48,0.182,0.524-0.078c0.051,0.982,0.42,2.199-0.3,2.071
				C15.622,152.359,15.192,150.685,15.156,149.71z"/>
			<path fill="#696B6D" d="M25.668,169.266l-0.208-0.739C25.494,168.825,25.568,169.067,25.668,169.266z"/>
			<path fill="#696B6D" d="M14.469,124.9c-0.168,0.327-0.588,0.276-0.795,1.222C14.09,125.201,14.285,126.011,14.469,124.9z"/>
			<path fill="#696B6D" d="M13.921,128.627c0.029-0.184,0.078-0.364,0.11-0.5c0.032-0.136,0.055-0.226,0.055-0.226
				s-0.03,0.085-0.073,0.211c-0.042,0.127-0.109,0.292-0.151,0.467c-0.097,0.342-0.193,0.685-0.193,0.685l0.121,0.094
				C13.79,129.36,13.855,128.994,13.921,128.627z"/>
			<path fill="#696B6D" d="M14.114,140.521c0.124,0.045,0.225-0.012,0.32-0.114C14.336,140.318,14.223,140.325,14.114,140.521z"/>
			<path fill="#696B6D" d="M14.263,141.545c-0.105,1.421-0.678-0.609-0.51,0.955C14.164,142.701,14.313,142.237,14.263,141.545z"/>
			<path fill="#696B6D" d="M15.375,148.243c-0.019,0.093-0.028,0.191-0.057,0.281C15.383,148.414,15.389,148.325,15.375,148.243z"/>
			<path fill="#696B6D" d="M23.803,166.006c0.045-0.038,0.088-0.132,0.125-0.309l0.328,0.769l-0.046-1.274
				c0.06,0.823-0.211,0.569-0.523,0.197c-0.286-0.385-0.597-0.893-0.702-0.505c0.182,0.063,0.32,0.374,0.443,0.658
				c0.14,0.275,0.257,0.524,0.359,0.473c0.024,0.064,0.042,0.128,0.07,0.183L23.803,166.006z"/>
			<path fill="#696B6D" d="M24.875,166.943c-0.409-0.082-0.792-0.292-1.018-0.745l0.242,0.864
				C24.173,166.708,24.725,166.945,24.875,166.943z"/>
			<path fill="#696B6D" d="M27.369,169.144c-0.137-0.092-0.292-0.203-0.439-0.325c-0.143-0.125-0.289-0.25-0.423-0.368
				c-0.547-0.455-0.985-0.69-0.702,0.501c0.07,0.192,0.116,0.392,0.162,0.587c0.153-0.046,1.205-0.165,1.301-0.185
				c0.143-0.03,0.251-0.053,0.344-0.068C27.536,169.249,27.456,169.201,27.369,169.144z"/>
			<path fill="#696B6D" d="M17.248,114.852c-0.211,0.119-0.318,0.179-0.417,0.068c-0.051,0.14-0.106,0.278-0.156,0.416
				C16.797,115.48,16.952,115.453,17.248,114.852z"/>
			<path fill="#696B6D" d="M16.831,114.92c0.001-0.005,0.004-0.012,0.006-0.017c-0.002,0.005-0.006,0.009-0.009,0.015
				C16.829,114.918,16.831,114.919,16.831,114.92z"/>
			<path fill="#696B6D" d="M127.345,90.972c23.247,22.702,23.861,60.129,1.371,83.595c-12.026,12.548-28.224,18.551-44.247,17.958
				c-0.123,4.37-0.665,8.728-0.438,13.088c19.557,0.709,39.324-6.632,54.002-21.947c27.47-28.66,26.72-74.374-1.673-102.102
				c-28.392-27.729-73.677-26.972-101.146,1.689c-4.454,4.647-8.164,9.744-11.135,15.139c0.033,0.032,0.066,0.067,0.101,0.099
				c-0.305,0.714-0.632,1.433-1.024,2.151c-0.065,0.15-0.067,0.324-0.042,0.494c-0.48,0.93-0.955,1.863-1.424,2.798
				c-0.226,0.324-0.449,0.659-0.673,1.019c0.015,0.097-0.001,0.227-0.021,0.369c-0.188,0.386-0.371,0.774-0.556,1.159
				c-0.088,0.068-0.176,0.135-0.261,0.208c-0.283,0.723-0.563,1.44-0.843,2.155c-0.236,0.521-0.479,1.038-0.706,1.562
				c-0.179,0.414-0.351,0.827-0.523,1.24c0.002-0.001,0.003-0.001,0.004-0.002c-0.004,0.007-0.008,0.014-0.012,0.021
				c-0.446,1.069-0.863,2.148-1.261,3.235c0.301-0.469,0.683-1.105,0.985-1.368c-0.082,0.24-0.167,0.482-0.254,0.725
				c-0.022,0.076-0.046,0.152-0.07,0.227c-0.07,0.089-0.114,0.175-0.09,0.292c-0.035,0.111-0.069,0.222-0.103,0.332
				c-0.205,0.418-0.406,0.816-0.597,0.99c0.122,0.077,0.225,0.189,0.316,0.323c0.015,0.25,0.03,0.498,0.036,0.746
				c-0.328,0.524-0.622,1.508-0.926,1.818c0.022,0.011,0.042,0.03,0.066,0.044c-0.052,0.096-0.106,0.21-0.168,0.366l0.467-0.031
				c0.043,0.067,0.083,0.137,0.122,0.213c-0.089,0.241-0.194,0.519-0.36,0.624c0.152-0.032,0.318-0.205,0.473-0.377
				c0.064,0.151,0.124,0.305,0.183,0.448c-0.036,0.341-0.075,0.683-0.122,1.024c-0.199,0.043-0.407,0.053-0.676,0.189
				c-0.113-0.111-0.239-0.105-0.394,0.254c-0.018-0.025-0.031-0.055-0.036-0.107l-0.024,0.165c0.02-0.017,0.036-0.028,0.052-0.041
				c-0.032,0.075-0.064,0.16-0.099,0.268l0.612-0.07c-0.088,0.244-0.166,0.662-0.364,0.803c0.087-0.023,0.172-0.099,0.258-0.19
				c-0.127,0.349-0.271,0.688-0.468,1.019c-0.081-0.075-0.142-0.153-0.199-0.219l0.021-0.152c-0.011,0.054-0.02,0.095-0.03,0.142
				c-0.188-0.23-0.296-0.353-0.705,0.097c0,0,0.05,0.361,0.099,0.724c0.021,0.181,0.06,0.362,0.085,0.499
				c0.026,0.136,0.043,0.227,0.043,0.227c0.25-0.279,0.49-0.555,0.745-0.817c0.137-0.099,0.292-0.223,0.422-0.258
				c-0.285,0.728-0.388,1.399-0.731,2.046c-0.071-0.063-0.127-0.124-0.179-0.18l0.177-0.922l-0.384,0.736
				c-0.058-0.028-0.123-0.023-0.202,0.03l-0.01-0.087l-0.063,0.142c-0.052,0.045-0.11,0.103-0.179,0.188l0.029,0.146l-0.507,1.153
				l0.734,0.44c-0.028,0.141-0.055,0.266-0.083,0.385l-0.024,0.045l-0.041-0.345c0,0-0.164,0.374-0.328,0.75
				c-0.155,0.375-0.29,0.758-0.29,0.758l0.144,0.081c-0.099,0.11-0.208,0.202-0.336,0.294c0.15,0.091,0.311,0.311,0.481,0.156
				l-0.096,0.749l0.314-0.142c-0.085,0.121-0.156,0.261-0.206,0.435c-0.025,0.099-0.047,0.196-0.071,0.292
				c-0.063,0.083-0.13,0.157-0.208,0.226c-0.197-0.309-0.418-0.604-0.225-1.113c-0.751,0.917-1.046,1.196-1.764,2.342
				c0.458,0.129,0.504,0.61,0.6,1.113c-0.093,0.152-0.188,0.318-0.298,0.518c0.676,0.164,0.378,1.138,0.842,1.731
				c0.271-0.451,0.437-1.329,0.708-1.764c0.011,0.826,0.119,1.55,0.311,2.246c-0.13,1.195-0.087,2.142,0.07,2.99
				c-0.034,0.058-0.069,0.108-0.107,0.149c0.162,0.147,0.284,0.537,0.292,0.883c-0.025,0.039-0.05,0.077-0.075,0.106
				c0.025,0.021,0.047,0.057,0.069,0.089c-0.028,0.225-0.122,0.4-0.312,0.427c0.119,0.567,0.226,0.786,0.321,0.833
				c-0.017,0.008-0.028,0.021-0.047,0.025c0.311,1.392,0.469,0.513,0.754,0.361c0.139,0.406,0.277,0.83,0.409,1.288
				c0.006,0.266,0.014,0.532,0.022,0.799c-0.037,0.14-0.044,0.349,0.003,0.691l0.018-0.026c0.018,0.516,0.041,1.033,0.068,1.547
				c-0.107,0.323-0.123,0.706,0.058,0.945c0.022,0.303,0.045,0.607,0.073,0.91c-0.087,0.415-0.035,0.68,0.092,0.887
				c0.042,0.363,0.093,0.727,0.148,1.087c-0.022,0.292,0.024,0.504,0.11,0.675c0.02,0.115,0.043,0.228,0.066,0.341
				c-0.03,0.296-0.085,0.581-0.373,0.492c0.359,0.628,0.489,0.612,0.56,0.388c0.033,0.142,0.063,0.287,0.097,0.43
				c-0.219,0.282-0.117,0.697,0.037,1.142c-0.043,0.154-0.135,0.252-0.331,0.199c0.369,0.558,0.527,0.628,0.605,0.494
				c0.058,0.172,0.099,0.339,0.106,0.501c-0.033,0.088-0.04,0.186-0.035,0.286c-0.033,0.114-0.087,0.224-0.18,0.319l-0.099-0.148
				l-0.191,0.833c0.397,0.128,0.526-0.165,0.551-0.596c0.128,0.41,0.37,0.867,0.494,1.296c-0.088,0.513-0.049,0.409,0.071,0.374
				c0.019,0.26-0.034,0.504-0.224,0.717l-0.107-0.161c0,0-0.049,0.23-0.098,0.461c-0.037,0.227-0.074,0.457-0.074,0.457
				c0.681,0.174,0.585-0.62,0.534-1.483c0.088-0.01,0.208,0.04,0.346,0.337c0.033,0.12,0.064,0.242,0.097,0.362
				c-0.002,0.011-0.005,0.027-0.005,0.027c0.005,0.005,0.01,0.011,0.016,0.015c0.123,0.463,0.24,0.928,0.345,1.396
				c-0.041-0.055-0.078-0.113-0.108-0.174c-0.155,1.445,0.045-0.124,0.629,1.168c0.142-0.412-0.226-0.64-0.477-0.94
				c0.055-0.124,0.11-0.262,0.166-0.407l0.002,0.066l0.155,0.053l-0.036-0.276c0.322,0.442,0.64,0.814,0.831,0.596
				c0.066,0.03,0.1,0.015,0.119-0.025c-0.006,0.135-0.013,0.292-0.021,0.448c-0.01,0.408,0.002,0.813,0.002,0.813l0.162,0.023
				c-0.054,0.137-0.122,0.266-0.208,0.396c0.124,0.02,0.276,0.101,0.389,0.068c0.019,0.056,0.036,0.108,0.062,0.174
				c0,0.009-0.001,0.015,0,0.022c0.001-0.005,0.004-0.003,0.007-0.005c0.077,0.177,0.151,0.394,0.322,0.659
				c0.082,0.062,0.144,0.101,0.194,0.125c-0.028,0.177-0.082,0.33-0.159,0.478c-0.294-0.215-0.606-0.406-0.607-0.954
				c-0.372,1.128-0.548,1.497-0.806,2.827c0.475-0.048,0.688,0.385,0.958,0.818c-0.032,0.177-0.062,0.365-0.093,0.591
				c0.689-0.095,0.761,0.924,1.406,1.309c0.127-0.728-0.242-2.164,0.299-2.29l0.052,0.258c0.034-0.98-0.714-0.932-1.003-1.414
				c0.058-0.156,0.142-0.27,0.277-0.297l0.041,0.284c0.012-0.143,0.006-0.264-0.011-0.372l0.012,0.04l0.358-0.379
				c-0.028,0.373-0.044,0.733-0.006,1.148c0.431-0.365,0.479,0.693,0.866,1.116c0.54-1.42-0.33-1.867-0.767-3.837
				c-0.002,0.33-0.018,0.614-0.036,0.879c-0.131-0.182-0.262-0.366-0.382-0.563c0.021-0.221,0-0.426-0.044-0.637l0.088-0.088
				c-0.009-0.014-0.019-0.026-0.027-0.04c0.015,0.008,0.027,0.009,0.042,0.016l-0.06-0.044c-0.045-0.07-0.091-0.142-0.14-0.212
				c-0.063-0.2-0.141-0.414-0.219-0.657c0-0.008,0-0.014,0.001-0.023c0.481-0.015,0.575-0.328,0.553-0.81
				c0.25-0.374,0.384-0.906,0.474,0.215c0.05,0.039,0.092,0.065,0.128,0.09c-0.241,0.313-0.141,0.741-0.104,1.055l-0.312,0.102
				l0.181,0.297c-0.099,0.025-0.262,0.001-0.522-0.094c0.281,0.461,0.475,0.421,0.621,0.255l0.114,0.185l0.219-0.719
				c0.071-0.056,0.132,0.062,0.205,0.595c0.846,0.587-0.157-0.65,0.332-0.639c-0.38-0.101-0.676-0.375-0.58-0.96
				c0.142,0.051,0.118-0.07,0.059-0.239c0.002-0.012,0.003-0.02,0.007-0.03l-0.015,0.011c-0.081-0.261-0.203-0.61,0.064-0.595
				c-0.46-0.143-0.79-0.525-0.477-1.367c-0.665,0.359-0.398,1.128-0.427,1.531c-0.098-0.62-0.361-1.42-0.531-2.169
				c0.014-0.192,0.027-0.371,0.042-0.582c-0.046,0.046-0.082,0.115-0.123,0.171c-0.059-0.37-0.09-0.708-0.021-0.994
				c0.714,0.273,1.26,0.66,1.697,1.155c0.241,0.271,0.449,0.572,0.644,0.901c0.218,0.322,0.42,0.672,0.618,1.042
				c0.398,0.741,0.785,1.577,1.259,2.465c0.221,0.451,0.537,0.88,0.855,1.329c0.325,0.445,0.685,0.895,1.088,1.339
				c0.799,1.016,0.04-1.029,0.48-1.282c0.312,0.059,0.619,0.182,0.923,0.338l0.605,1.036c0.123,0.2,0.242,0.404,0.37,0.602
				l0.417,0.576c-0.055-0.111-0.11-0.22-0.166-0.33c-0.24-0.36-0.42-0.744-0.643-1.093c-0.165-0.267-0.34-0.519-0.524-0.758
				c0.288,0.154,0.573,0.335,0.857,0.529c0.294,0.21,0.6,0.425,0.9,0.638c0.319,0.201,0.636,0.39,0.952,0.546
				c-0.152-0.371-0.335-0.725-0.469-1.104l-0.418-1.126c-0.285-0.745-0.578-1.483-0.881-2.217l-1.596-4.485
				c-0.938-3.027-1.882-6.066-2.459-9.208c0.045,0.599,0.083,1.199,0.108,1.8c0.054,0.596,0.119,1.188,0.158,1.782
				c0.09,1.185,0.07,2.392,0.124,3.57c-0.923-4.167-1.344-8.433-1.268-12.704c-0.35-3.415-0.39-6.877-0.054-10.294
				c0.04-0.036,0.078-0.077,0.114-0.136l-0.025,0.216c0.121-0.756,0.609-0.672,0.933-1.082c-0.862-0.25-0.024-0.877-0.653-0.947
				c0,0,0.136-0.145,0.27-0.288c0.041-0.041,0.079-0.08,0.115-0.116c0.025,0.132,0.047,0.265,0.062,0.404
				c0.014-0.172,0.033-0.343,0.046-0.515c0.034-0.035,0.058-0.058,0.058-0.058l0.017,0.16c0.178-0.057,0.304-0.132,0.397-0.224
				c-0.076,0.396-0.15,0.792-0.203,1.189c-0.085,0.62-0.171,1.239-0.256,1.856l-0.044,0.725l-0.009-0.367l-0.176,1.184
				c-0.052,0.395-0.077,0.791-0.119,1.186c-0.08,0.792-0.159,1.581-0.238,2.369c-0.051,0.396-0.063,0.79-0.081,1.185l-0.056,1.183
				c-0.028,0.79-0.103,1.582-0.098,2.371l0.374,2.789l0.092,0.696c0.04,0.229,0.091,0.458,0.136,0.688l0.276,1.378
				c-0.315-3.388-0.408-6.885,0.067-10.23c0.251,1.124,0.537,2.276,0.708,3.453c0.05,0.294,0.081,0.591,0.134,0.886
				c0.054,0.293,0.107,0.59,0.162,0.887c0.1,0.595,0.183,1.195,0.25,1.796c-0.031-0.784-0.072-1.57-0.118-2.356
				c-0.034-0.393-0.026-0.789-0.023-1.185l0.002-1.187c0.092-0.603,0.183-1.207,0.308-1.758c0.147-0.553,0.35-1.054,0.6-1.458
				c-0.243,1.523-0.14,2.802,0.134,3.99c0.072-1.305,0.089-2.614,0.288-3.931c0.082-0.655,0.164-1.313,0.246-1.974
				c0.071-0.661,0.235-1.318,0.35-1.979c-0.277,1.443-0.177,2.953-0.201,4.448c-0.032,0.75,0.007,1.496-0.034,2.236
				c-0.039,0.743-0.137,1.481-0.327,2.218c-0.132-0.334-0.235-0.671-0.321-1.018c-0.149,4.719,0.407,9.367,1.711,13.777
				c0.082-0.347,0.113-0.693,0.104-1.044c-0.004-0.175-0.019-0.353-0.041-0.529c-0.018-0.18-0.029-0.363-0.056-0.545
				c-0.098-0.73-0.304-1.48-0.522-2.242c-0.102-0.383-0.238-0.762-0.309-1.154c-0.074-0.389-0.14-0.781-0.183-1.169
				c-0.089-0.777-0.091-1.544,0.088-2.267c1.017,4.847,2.143,9.87,4.186,14.599c0.556,1.157,1.086,2.328,1.688,3.454
				c0.663,1.096,1.334,2.181,2.036,3.229c0.785,1,1.587,1.974,2.415,2.899c0.867,0.901,1.831,1.708,2.778,2.477
				c-0.762-1.091-1.562-2.156-2.245-3.291c-2.114-3.142-3.929-6.473-5.417-9.951c-3.984-8.767-5.583-18.453-4.757-27.958
				c0.139-2.807,0.474-5.606,1.034-8.368c0.712-4.519,1.986-8.96,3.81-13.202c0.046,0.045,0.092,0.091,0.137,0.137
				c2.661-5.645,6.251-10.962,10.796-15.705C67.022,68.887,104.099,68.27,127.345,90.972z M19.788,157.234
				c-0.08-0.028-0.148-0.061-0.211-0.092c-0.008-0.014-0.017-0.028-0.025-0.043l-0.069-0.381c0.01-0.028,0.021-0.056,0.032-0.083
				c0.234,0.28,0.298,0.211,0.301,0.033C19.817,156.854,19.812,157.042,19.788,157.234z M19.805,156.438
				c-0.002-0.008-0.005-0.012-0.008-0.017c-0.017-0.129-0.037-0.261-0.044-0.354c0.009-0.021,0.019-0.041,0.03-0.062
				C19.792,156.151,19.798,156.294,19.805,156.438z M20.341,155.394c0.063,0.022,0.113,0.05,0.173,0.07l-0.155,0.238
				c-0.021-0.101-0.042-0.203-0.062-0.306C20.312,155.395,20.326,155.392,20.341,155.394z M17.833,157.117
				c-0.094-0.111-0.19-0.225-0.249-0.356c-0.02-0.224-0.031-0.429-0.028-0.606C17.65,156.477,17.742,156.796,17.833,157.117z
				 M14.057,132.196c-0.022,0.166-0.042,0.326-0.057,0.482c-0.064-0.102-0.116-0.209-0.138-0.331
				C13.924,132.277,13.989,132.226,14.057,132.196z M15.15,129.737c-0.038-0.165-0.08-0.332-0.124-0.499
				c0.042-0.102,0.084-0.204,0.143-0.313c0.146,0.052,0.263,0.056,0.363,0.029c-0.022,0.198-0.037,0.397-0.057,0.596
				C15.365,129.615,15.256,129.675,15.15,129.737z M30.444,109.626c-0.077,0.271-0.143,0.546-0.195,0.821
				c0.096,0.213,0.128,0.421-0.146,0.687c-0.26,1.266-0.586,2.397-1.063,3.158c-0.831,1.317-1.314,2.729-1.608,4.139
				c-0.019-0.641-0.054-1.273-0.082-1.88c0.802-2.424,1.741-4.777,2.732-7.041c-0.139,0.353,0.007,0.609,0.121,0.84
				C30.266,110.105,30.35,109.865,30.444,109.626c0.178-0.666,0.37-1.331,0.606-1.952C30.941,108.358,30.684,108.99,30.444,109.626z
				 M17.06,117.764c-0.002,0.447-0.018,0.896-0.047,1.344c-0.106-0.227-0.194-0.579-0.256-1.209
				C16.863,117.834,16.963,117.791,17.06,117.764z"/>
			<path fill="#696B6D" d="M19.818,158.979l0.015,0.005c0.025,0.14,0.044,0.268,0.061,0.389l-0.005,0.051l-0.001-0.001
				C19.865,159.274,19.843,159.128,19.818,158.979z"/>
			<path fill="#696B6D" d="M15.77,146.959c0.006,0.091,0.012,0.186,0.019,0.278C15.772,147.125,15.768,147.035,15.77,146.959z"/>
			<path fill="#696B6D" d="M19.712,159.214c0.002-0.001,0.001-0.003,0.002-0.005c0.003,0.005,0.004,0.007,0.006,0.014
				c0,0.015,0,0.029-0.002,0.046C19.717,159.252,19.716,159.234,19.712,159.214z"/>
			<path fill="#696B6D" d="M52.362,182.974c0.721-0.327,1.692,0.934,2.563,0.948c-0.485-0.535-0.957-1.02-1.425-1.481
				c-2.394-1.719-4.669-3.625-6.798-5.705c-0.988-0.965-1.937-1.962-2.851-2.99C46.185,177.131,49.001,180.357,52.362,182.974z"/>
			<path fill="#696B6D" d="M59.7,188.163c-0.382-0.37-0.892-0.65-1.421-0.921C58.741,187.55,59.212,187.856,59.7,188.163z"/>
			<path fill="#696B6D" d="M35.751,169.033c-0.375-0.669-0.798-1.309-1.24-1.94c-0.465-0.617-0.848-1.281-1.247-1.933
				c-0.393-0.652-0.769-1.312-1.094-1.98c0.571,1.244,1.108,2.505,1.715,3.722c0.667,1.19,1.33,2.371,1.987,3.543
				c0.283,0.239,0.575,0.464,0.891,0.664c-0.145-0.362-0.317-0.704-0.491-1.045C36.112,169.711,35.939,169.369,35.751,169.033z"/>
			<path fill="#696B6D" d="M37.389,174.348c1.73,2.256,3.401,4.519,4.973,6.764C40.896,178.752,39.237,176.446,37.389,174.348z"/>
			<path fill="#696B6D" d="M38.055,178.894c0.334,0.433,0.664,0.873,1.006,1.302l1.087,1.224c0.733,0.815,1.465,1.626,2.196,2.437
				c-0.614-1.067-1.296-2.08-2.028-3.059c-0.185-0.242-0.372-0.485-0.558-0.728l-0.285-0.362l-0.267-0.38
				c-0.358-0.503-0.727-1-1.099-1.496c-0.66-0.699-1.354-1.372-1.994-2.091l-1.869-2.211c0.608,0.919,1.213,1.838,1.817,2.751
				C36.727,177.153,37.391,178.023,38.055,178.894z"/>
			<path fill="#696B6D" d="M24.431,177.682c-0.388-0.225-0.73-0.482-1.043-0.768c0.335,0.609,0.671,1.221,1.01,1.838
				C24.337,178.379,24.339,178.019,24.431,177.682z"/>
			<path fill="#696B6D" d="M33.023,188.968c-0.279-0.331-0.572-0.662-0.876-0.992c-0.302-0.331-0.623-0.653-0.921-1.018
				c-0.038-0.125-0.286-0.161-0.584-0.225C31.385,187.549,32.225,188.253,33.023,188.968z"/>
		</g>
		<g>
			<path fill="#696B6D" d="M110.091,95.916c-4.162,3.338-8.367,6.956-12.54,10.865c-1.295-1.641-3.195-2.287-5.633-2.287h-7.422
				v15.678c-5.484,6.174-10.777,12.915-15.7,20.253V87.635h23.122C100.169,87.635,106.216,90.479,110.091,95.916z"/>
			<path fill="#696B6D" d="M115.327,116.804v15.341c0,18.886-7.708,29.169-23.409,29.169h-7.422v44.345h-15.7v-43.695
				c4.364-11.044,9.741-21.028,15.7-30.022v12.511h7.422c4.995,0,7.708-2.697,7.708-11.127v-17.701c0-1.164-0.054-2.217-0.153-3.169
				c4.162-4.714,8.416-9.054,12.654-13.031C114.265,103.976,115.327,109.798,115.327,116.804z"/>
		</g>
	</g>
	<g>
		<path d="M185.758,107.186v19.88h-3.762V77.478h13.113c5.602,0,9.884,1.184,12.85,3.553c2.965,2.369,4.447,5.816,4.447,10.34
			c0,4.61-1.652,8.399-4.957,11.365c-3.305,2.966-7.934,4.45-13.887,4.45H185.758z M185.758,80.647v23.401h7.734
			c4.898,0,8.631-1.067,11.197-3.201c2.566-2.134,3.85-5.154,3.85-9.06c0-7.427-4.699-11.14-14.098-11.14H185.758z"/>
		<path d="M234.766,127.931c-5.672,0-10.16-1.701-13.465-5.106c-3.305-3.404-4.957-7.816-4.957-13.237
			c0-5.891,1.728-10.496,5.186-13.814c3.457-3.318,8.01-4.978,13.658-4.978c5.531,0,9.908,1.649,13.131,4.946
			c3.222,3.297,4.834,7.859,4.834,13.686c0,5.506-1.641,9.967-4.922,13.381C244.949,126.223,240.461,127.931,234.766,127.931z
			 M235.047,93.709c-4.594,0-8.25,1.403-10.969,4.209c-2.719,2.806-4.078,6.718-4.078,11.733c0,4.631,1.33,8.351,3.99,11.156
			c2.66,2.807,6.287,4.209,10.881,4.209c4.688,0,8.297-1.381,10.828-4.146c2.531-2.764,3.797-6.6,3.797-11.508
			c0-5.037-1.26-8.905-3.779-11.605C243.197,95.059,239.64,93.709,235.047,93.709z"/>
		<path d="M289.223,127.066V106.45c0-8.494-3.363-12.741-10.09-12.741c-3.75,0-6.832,1.248-9.246,3.745s-3.621,5.592-3.621,9.284
			v20.329h-3.48V91.66h3.48v6.435h0.176c2.836-4.866,7.266-7.299,13.289-7.299c4.195,0,7.406,1.275,9.633,3.826
			s3.34,6.184,3.34,10.9v21.545H289.223z"/>
		<path d="M335.523,124.441c0,6.659-1.6,11.529-4.799,14.614c-3.199,3.084-8.162,4.626-14.889,4.626
			c-3.75,0-7.605-0.896-11.566-2.689v-3.297c4.102,2.07,7.98,3.105,11.637,3.105c10.734,0,16.102-5.165,16.102-15.494v-4.61h-0.141
			c-3.07,4.823-7.746,7.235-14.027,7.235c-4.781,0-8.684-1.58-11.707-4.738s-4.535-7.566-4.535-13.222
			c0-5.634,1.635-10.239,4.904-13.813c3.27-3.574,7.576-5.362,12.92-5.362c5.719,0,9.867,2.156,12.445,6.467h0.141V91.66h3.516
			V124.441z M332.008,105.266c0-3.137-1.154-5.848-3.463-8.131c-2.309-2.284-5.326-3.425-9.053-3.425
			c-4.289,0-7.734,1.462-10.336,4.386s-3.902,6.798-3.902,11.621c0,4.845,1.195,8.606,3.586,11.285s5.543,4.017,9.457,4.017
			c4.195,0,7.529-1.232,10.002-3.697c2.473-2.465,3.709-5.479,3.709-9.043V105.266z"/>
		<path d="M348.742,127.066V77.478h3.762v46.483h21.832v3.105H348.742z"/>
		<path d="M388.715,134.301c-1.406,3.18-2.971,5.538-4.693,7.075s-3.943,2.305-6.662,2.305c-1.125,0-2.133-0.16-3.023-0.48v-3.169
			c0.914,0.32,1.98,0.48,3.199,0.48c3.094,0,5.543-1.953,7.348-5.858l3.621-7.875l-14.73-35.119h3.902l11.742,28.844
			c0.234,0.62,0.41,1.088,0.527,1.409c0.094,0.448,0.199,0.843,0.316,1.184h0.176l0.914-2.401l12.516-29.036h3.797L388.715,134.301z
			"/>
		<path d="M430.059,127.931c-5.672,0-10.16-1.701-13.465-5.106c-3.305-3.404-4.957-7.816-4.957-13.237
			c0-5.891,1.729-10.496,5.186-13.814c3.457-3.318,8.01-4.978,13.658-4.978c5.531,0,9.908,1.649,13.131,4.946
			s4.834,7.859,4.834,13.686c0,5.506-1.641,9.967-4.922,13.381S435.754,127.931,430.059,127.931z M430.34,93.709
			c-4.594,0-8.25,1.403-10.969,4.209s-4.078,6.718-4.078,11.733c0,4.631,1.33,8.351,3.99,11.156
			c2.66,2.807,6.287,4.209,10.881,4.209c4.688,0,8.297-1.381,10.828-4.146c2.531-2.764,3.797-6.6,3.797-11.508
			c0-5.037-1.26-8.905-3.779-11.605C438.49,95.059,434.934,93.709,430.34,93.709z"/>
		<path d="M484.516,127.066V106.45c0-8.494-3.363-12.741-10.09-12.741c-3.75,0-6.832,1.248-9.246,3.745s-3.621,5.592-3.621,9.284
			v20.329h-3.48V91.66h3.48v6.435h0.176c2.836-4.866,7.266-7.299,13.289-7.299c4.195,0,7.406,1.275,9.633,3.826
			s3.34,6.184,3.34,10.9v21.545H484.516z"/>
	</g>
	<path d="M181.996,199.086V159.06h18.464c5.662,0,10.026,0.827,13.093,2.48c3.066,1.654,4.6,3.945,4.6,6.874
		c0,2.17-0.952,4.074-2.854,5.71c-1.902,1.637-4.296,2.765-7.184,3.385v0.103c3.626,0.345,6.551,1.378,8.779,3.101
		c2.227,1.723,3.34,3.885,3.34,6.486c0,3.635-1.678,6.524-5.036,8.669c-3.357,2.145-7.945,3.217-13.764,3.217H181.996z
		 M193.075,165.416v9.897h5.271c2.529,0,4.521-0.465,5.976-1.396c1.455-0.93,2.182-2.231,2.182-3.901c0-3.066-2.91-4.6-8.729-4.6
		H193.075z M193.075,181.748v10.981h6.58c2.798,0,4.985-0.499,6.563-1.499c1.578-0.999,2.367-2.386,2.367-4.16
		c0-1.688-0.784-2.998-2.35-3.928c-1.567-0.93-3.793-1.395-6.681-1.395H193.075z"/>
	<path d="M300.469,199.086h-30.517V159.06h11.079v33.05h19.438V199.086z"/>
	<path d="M345.252,179.603c0-6.27,2.378-11.374,7.134-15.311c4.756-3.936,11.039-5.904,18.851-5.904
		c7.43,0,13.411,1.904,17.943,5.711c4.532,3.808,6.799,8.699,6.799,14.678c0,6.236-2.356,11.296-7.067,15.181
		c-4.711,3.885-10.883,5.827-18.514,5.827c-7.454,0-13.507-1.882-18.163-5.646C347.579,190.375,345.252,185.529,345.252,179.603z
		 M356.9,179.138c0,3.894,1.221,7.077,3.66,9.548c2.439,2.472,5.785,3.708,10.037,3.708c4.343,0,7.722-1.184,10.139-3.553
		c2.418-2.368,3.626-5.552,3.626-9.548c0-4.169-1.175-7.463-3.525-9.884c-2.35-2.42-5.662-3.63-9.937-3.63
		c-4.342,0-7.761,1.24-10.256,3.721S356.9,175.193,356.9,179.138z"/>
	<path d="M487.996,196.399c-5.08,2.257-11.324,3.385-18.732,3.385c-8.28,0-14.816-1.792-19.605-5.375
		c-4.79-3.583-7.185-8.485-7.185-14.703c0-6.306,2.636-11.435,7.905-15.388c5.271-3.954,12.215-5.931,20.832-5.931
		c5.55,0,10.396,0.604,14.535,1.809v8.088c-4.027-1.809-8.952-2.713-14.771-2.713c-5.013,0-9.076,1.258-12.186,3.773
		c-3.111,2.516-4.667,5.831-4.667,9.948c0,4.186,1.404,7.451,4.213,9.793c2.809,2.343,6.642,3.515,11.498,3.515
		c2.888,0,5.248-0.345,7.084-1.034v-8.217H466.41v-6.848h21.586V196.399z"/>
</g>
</svg>
